<svg xmlns="http://www.w3.org/2000/svg" width="26" height="27" viewBox="0 0 26 27">
    <path fill="#212121" fill-rule="nonzero" d="M22.772 8.344c.167.347.314.697.44 1.05l2.378.595c.24.06.41.278.41.526v4.987c0 .249-.17.465-.41.526l-2.379.595a10.8 10.8 0 0 1-.439 1.05l1.264 2.11a.542.542 0 0 1-.082.662L20.43 23.97a.541.541 0 0 1-.662.082l-2.105-1.265c-.35.168-.7.315-1.051.44l-.595 2.38a.542.542 0 0 1-.525.41h-4.984a.542.542 0 0 1-.525-.41l-.595-2.38c-.351-.125-.7-.272-1.05-.44l-2.106 1.265a.541.541 0 0 1-.662-.082l-3.524-3.525a.542.542 0 0 1-.082-.662l1.264-2.11a10.8 10.8 0 0 1-.44-1.05L.41 16.028a.542.542 0 0 1-.41-.526v-4.987c0-.248.17-.465.41-.526l2.379-.595a10.8 10.8 0 0 1 .439-1.05L1.964 6.236a.542.542 0 0 1 .082-.662L5.57 2.047a.541.541 0 0 1 .662-.081L8.338 3.23c.347-.167.697-.314 1.05-.44L9.983.41A.542.542 0 0 1 10.508 0h4.984c.248 0 .465.17.525.41l.595 2.38c.353.127.703.274 1.05.44l2.106-1.264a.541.541 0 0 1 .662.081l3.524 3.527c.176.175.21.448.082.662l-1.264 2.108zm-.11 7.299l2.255-.564v-4.14l-2.255-.565a.542.542 0 0 1-.384-.359 9.725 9.725 0 0 0-.605-1.449.542.542 0 0 1 .018-.526l1.198-2-2.926-2.927-1.998 1.2a.541.541 0 0 1-.526.017 9.604 9.604 0 0 0-1.447-.605.542.542 0 0 1-.36-.385l-.563-2.256H10.93l-.563 2.256a.542.542 0 0 1-.36.385c-.487.157-.969.36-1.447.605a.541.541 0 0 1-.526-.017l-1.998-1.2L3.11 6.041l1.198 2c.096.16.103.359.018.525-.246.48-.448.962-.605 1.449a.542.542 0 0 1-.384.36l-2.255.564v4.14l2.255.564a.542.542 0 0 1 .384.36c.157.486.359.968.605 1.448a.542.542 0 0 1-.018.526l-1.198 2 2.926 2.927 1.997-1.199a.541.541 0 0 1 .525-.018c.486.25.967.45 1.448.605a.542.542 0 0 1 .36.385l.564 2.256h4.138l.563-2.256a.542.542 0 0 1 .36-.385 9.653 9.653 0 0 0 1.45-.605.541.541 0 0 1 .524.018l1.997 1.2 2.926-2.928-1.198-2a.542.542 0 0 1-.018-.526c.246-.48.448-.962.605-1.449a.542.542 0 0 1 .384-.36zm-2.998 7.56l.662-.08-.363-.219-.299.3zM19.5 13.01a6.502 6.502 0 0 1-6.5 6.504c-3.59 0-6.5-2.911-6.5-6.504A6.502 6.502 0 0 1 13 6.505c3.59 0 6.5 2.911 6.5 6.504zm-1.083 0a5.418 5.418 0 1 0-10.834 0 5.418 5.418 0 1 0 10.834 0z"/>
</svg>
