<svg xmlns="http://www.w3.org/2000/svg" width="28" height="26" viewBox="0 0 28 26">
    <path fill="#212121" fill-rule="nonzero" d="M11.667 24.516h14c.644 0 1.166-.523 1.166-1.167v-2.376a4.086 4.086 0 0 1-3.5-4.045 4.086 4.086 0 0 1 3.5-4.045v-2.376c0-.644-.522-1.167-1.166-1.167h-14v1.313a.584.584 0 1 1-1.167 0V9.34H5.833c-.643 0-1.166.523-1.166 1.167v2.376a4.086 4.086 0 0 1 3.5 4.045 4.086 4.086 0 0 1-3.5 4.045v2.376c0 .644.523 1.167 1.166 1.167H10.5v-1.021a.584.584 0 1 1 1.167 0v1.021zm-5.049-9.033a2.915 2.915 0 0 0-2.535-1.474.584.584 0 0 1-.583-.583v-2.919c0-.104.007-.207.02-.308l-1.776 1.034a1.173 1.173 0 0 0-.422 1.595l1.194 2.088a3.984 3.984 0 0 1 1.568-.323c.95 0 1.835.33 2.534.89zm.241 2.343a2.905 2.905 0 0 0-2.775-2.065c-.526 0-1.034.148-1.497.427a.583.583 0 0 1-.807-.21l-1.47-2.57a2.341 2.341 0 0 1 .847-3.184L18.168.314a2.307 2.307 0 0 1 3.167.854l1.422 2.484a.584.584 0 0 1-.227.803A2.901 2.901 0 0 0 21 7.005c0 .408.086.803.25 1.167h4.417A2.335 2.335 0 0 1 28 10.507v2.919a.584.584 0 0 1-.583.583 2.917 2.917 0 0 0-2.917 2.919 2.917 2.917 0 0 0 2.917 2.919c.322 0 .583.261.583.583v2.919a2.335 2.335 0 0 1-2.333 2.335H5.833A2.335 2.335 0 0 1 3.5 23.349V20.43c0-.322.261-.583.583-.583a2.918 2.918 0 0 0 2.776-2.02zm13.147-9.654a4.054 4.054 0 0 1 1.464-4.42l-1.147-2.004a1.141 1.141 0 0 0-1.568-.425L6.998 8.173h13.008zM10.5 14.155a.584.584 0 1 1 1.167 0v1.168a.584.584 0 1 1-1.167 0v-1.168zm0 4.67a.584.584 0 1 1 1.167 0v1.168a.584.584 0 1 1-1.167 0v-1.168zm10.075 1.68a.894.894 0 0 1-.375.939.89.89 0 0 1-.501.154.906.906 0 0 1-.522-.167L17.5 20.232l-1.68 1.201a.906.906 0 0 1-1.012.017.894.894 0 0 1-.382-.944l.512-2.304-1.79-1.535a.9.9 0 1 1 .483-1.574l2.28-.254.747-1.994a.896.896 0 0 1 1.682-.004l.75 1.998 2.28.254a.895.895 0 1 1 .483 1.573l-1.79 1.536.512 2.304zm-1.727-2.391a.584.584 0 0 1 .19-.57l1.584-1.36-2.018-.224a.583.583 0 0 1-.481-.375l-.623-1.661-.623 1.661a.583.583 0 0 1-.482.375l-2.017.224 1.585 1.36c.163.14.236.36.19.57l-.436 1.958 1.444-1.032a.583.583 0 0 1 .678 0l1.445 1.033-.436-1.96z"/>
</svg>
