<svg xmlns="http://www.w3.org/2000/svg" width="16" height="31" viewBox="0 0 16 31">
    <path fill="none" fill-rule="evenodd" stroke="#212121" stroke-width="1.126" d="M13.463 28.325c-1.133.444-2.05.789-2.743 1.03-.74.262-1.59.391-2.548.391-1.51 0-2.72-.381-3.589-1.154-.887-.772-1.336-1.785-1.336-2.988 0-.423.03-.856.087-1.31a15 15 0 0 1 .29-1.498l1.426-5.031c.136-.524.237-.951.31-1.328.08-.417.119-.772.119-1.084 0-.5-.093-.808-.231-.94-.13-.126-.503-.217-1.127-.217-.316 0-.648.047-.968.138-.371.116-.691.223-.959.322l-.99.364.691-2.85.265-.11a36.484 36.484 0 0 1 2.72-.994c.903-.293 1.765-.44 2.59-.44 1.492 0 2.682.377 3.537 1.141.865.77 1.306 1.785 1.306 3 0 .225-.024.571-.078 1.207a8.402 8.402 0 0 1-.302 1.62l-1.418 5.03a14.6 14.6 0 0 0-.307 1.32c-.085.477-.127.845-.127 1.074 0 .51.1.814.242.929.177.145.57.237 1.197.237.285 0 .62-.053 1.023-.163.385-.105.685-.206.866-.288l1.057-.48-.732 2.966-.271.106zm-.067-20.503l-.004.003c-.775.71-1.708 1.07-2.778 1.07a4.006 4.006 0 0 1-2.779-1.073C7.061 7.099 6.659 6.2 6.659 5.168c0-1.024.4-1.922 1.18-2.66a4.003 4.003 0 0 1 2.775-1.07c1.07 0 2.003.36 2.785 1.077.769.728 1.164 1.625 1.164 2.653 0 1.036-.396 1.934-1.167 2.654z"/>
</svg>
