<svg xmlns="http://www.w3.org/2000/svg" width="30" height="25" viewBox="0 0 30 25">
    <path fill="#212121" fill-rule="nonzero" d="M13.872 7.287c.395-.546.886-1.1 1.385-1.538 1.222-1.072 2.422-1.439 3.294-.567 1.354 1.355.892 3.7-.552 5.795l-.13.191a4.997 4.997 0 0 0 5.886-4.92A4.997 4.997 0 0 0 18.76 1.25a4.998 4.998 0 0 0-4.888 6.037zm3.327 5.013c-.54 1.024-.897 2.035-.966 2.755-.014.142-.02.251-.032.51l-.008.169c-.062 1.197-.348 2.034-1.326 3.38-.51.701-1.096 1.17-2.13 1.807.119-.073-.772.47-1.007.62-.38.242-.7.466-1.003.709-.807.645-1.476 1.41-2.069 2.433a.624.624 0 0 1-.54.311c-2.625 0-4.713-1.015-6.295-2.696-.55-.585-.999-1.21-1.355-1.837a6.79 6.79 0 0 1-.427-.867.625.625 0 0 1 .092-.609 21.865 21.865 0 0 0 1.306-1.918c.3-.498.56-.979.764-1.43.134-.294.243-.572.324-.829.136-.431.938-3.304 1.185-4.128.516-1.724.97-2.997 1.415-3.869.222-.437.442-.771.676-1.005.557-.557 1.875-1.015 3.852-1.474a57.482 57.482 0 0 1 3.416-.663 6.246 6.246 0 0 1 11.933 2.58A6.246 6.246 0 0 1 17.2 12.3zm-4.561-7.29l-.179.03c-.86.153-1.721.324-2.522.51-1.71.397-2.932.821-3.251 1.14-.124.124-.278.359-.447.689-.4.786-.835 2.004-1.33 3.66-.242.805-1.047 3.69-1.191 4.146a8.682 8.682 0 0 1-.377.969c-.227.5-.509 1.023-.833 1.56a23.098 23.098 0 0 1-1.163 1.738 8.396 8.396 0 0 0 1.388 1.99c1.287 1.368 2.943 2.211 5.036 2.296a9.54 9.54 0 0 1 2.178-2.465c.341-.273.696-.522 1.111-.787.249-.158 1.154-.71 1.024-.63.906-.557 1.384-.94 1.775-1.478.832-1.145 1.039-1.749 1.089-2.71l.008-.161c.012-.278.02-.401.036-.57.095-.998.592-2.333 1.323-3.62a.623.623 0 0 1 .084-.146c.18-.306.37-.61.574-.903 1.14-1.656 1.487-3.412.697-4.203-.238-.237-.803-.064-1.587.624-.757.665-1.513 1.67-1.764 2.293-.922 2.283-2.107 4.154-3.462 4.717a.624.624 0 0 1-.585-.057c-.382-.254-.657-.603-.893-1.058-.097-.187-.327-.71-.349-.754-.034-.068-.052-.093-.018-.07a.625.625 0 0 1-.202-.792c.042-.084.096-.216.156-.382.04-.11.082-.234.126-.369a22.034 22.034 0 0 0 .298-1.007.625.625 0 0 1 .371-.418l2.91-1.163a6.272 6.272 0 0 1-.031-2.62zm-1.933 7.349c.789-.558 1.641-1.927 2.322-3.528L10.51 9.838a30.333 30.333 0 0 1-.232.764 12.958 12.958 0 0 1-.193.554c.02.036.04.074.06.115.042.084.267.595.34.737.072.138.144.254.22.35zm17.422.138a1.874 1.874 0 0 1-1.874-1.874V1.875a1.874 1.874 0 1 1 3.747 0v8.748a1.874 1.874 0 0 1-1.873 1.874zm0-1.25c.345 0 .624-.279.624-.624V1.875a.624.624 0 1 0-1.249 0v8.748c0 .345.28.625.625.625z"/>
</svg>
