<svg xmlns="http://www.w3.org/2000/svg" width="30" height="24" viewBox="0 0 30 24">
    <g fill="none" fill-rule="evenodd" transform="translate(0 1)">
        <path fill="#212121" fill-rule="nonzero" d="M6.082 18.687a1.82 1.82 0 0 1-1.683 1.087H.605A.594.594 0 0 1 0 19.192V9.887c0-.367.35-.642.724-.57l4.932.947a1.791 1.791 0 0 1 1.389 1.23c.18-.047.374-.094.578-.139.877-.19 1.78-.305 2.67-.305.747 0 1.405.16 2.187.485.176.073.353.152.59.26-.05-.022.45.21.588.271.824.374 1.449.594 2.203.74 3.137.611 4.596 1.294 4.715 2.703.458-.126.933-.251 1.408-.37.3-.074.592-.143.873-.206 1.114-.251 1.988-.393 2.57-.393 1.993 0 3.633.84 3.633 2.326 0 .23-.142.44-.362.533-.44.185-3.788 1.766-4.819 2.23-.533.241-1.04.464-1.526.67-2.728 1.162-4.73 1.801-6.007 1.801-1.074 0-2.719-.427-4.825-1.182a56.787 56.787 0 0 1-1.61-.606 79.678 79.678 0 0 1-3.83-1.625zm.23-1.184a55.556 55.556 0 0 0 5.632 2.325c1.974.708 3.519 1.11 4.402 1.11 1.046 0 2.949-.608 5.517-1.702.478-.203.976-.422 1.502-.66.84-.378 3.318-1.545 4.393-2.038-.278-.485-1.168-.835-2.33-.835-.462 0-1.268.131-2.295.362a56.014 56.014 0 0 0-3.027.788c-1.084.963-4.012.765-8.775-.592a.578.578 0 0 1-.408-.723.61.61 0 0 1 .752-.393c5.394 1.537 7.698 1.4 7.698.558 0-.706-1.06-1.232-3.753-1.756-.864-.169-1.574-.419-2.479-.829a131.27 131.27 0 0 1-.593-.273 15.68 15.68 0 0 0-.548-.243c-.643-.267-1.146-.389-1.708-.389-.789 0-1.606.104-2.401.277-.365.08-.661.158-.867.22l-.712 4.793zm-5.101 1.108h3.188a.6.6 0 0 0 .6-.499l.899-6.054a.585.585 0 0 0-.48-.654l-4.207-.807v8.014z"/>
        <ellipse cx="22.086" cy="4.653" stroke="#212121" stroke-width="1.126" rx="4.65" ry="4.653"/>
    </g>
</svg>
