<svg xmlns="http://www.w3.org/2000/svg" width="26" height="26" viewBox="0 0 26 26">
    <path fill="#303C42" fill-rule="nonzero" d="M13 0c7.2 0 13 5.8 13 13s-5.8 13-13 13S0 20.2 0 13 5.8 0 13 0zm8.5 4.6l-.8.4c-.6.4-.9 1.3-.5 2l1.6 2.8c.4.7 1.3.9 2 .5l.8-.4C24 7.9 23 6 21.5 4.6zM9.9 1.4v.9c0 .8.7 1.5 1.5 1.5h3.2c.8 0 1.5-.7 1.5-1.5v-.9C15.1 1.1 14 1 13 1s-2.1.1-3.1.4zM4.5 4.5C3 6 2 7.9 1.4 9.9l.8.5c.3.2.7.2 1.1.1.4-.1.7-.4.9-.7L5.8 7c.4-.7.2-1.6-.5-2l-.8-.5zm0 16.9l.8-.4c.6-.4.9-1.3.5-2l-1.6-2.7c-.2-.4-.5-.6-.9-.7-.3-.2-.8-.1-1.1.1l-.8.4c.6 2 1.6 3.9 3.1 5.3zm11.6 3.2v-.9c0-.8-.7-1.5-1.5-1.5h-3.2c-.8 0-1.5.7-1.5 1.5v.9c1 .3 2.1.4 3.1.4s2.1-.1 3.1-.4zm5.4-3.1C23 20 24 18.1 24.6 16l-.8-.4c-.3-.2-.7-.2-1.1-.1-.4.1-.7.4-.9.7L20.2 19c-.4.7-.2 1.6.5 2l.8.5zm2.8-6.7l.5.4c.1-.7.2-1.4.2-2.1 0-.7-.1-1.4-.2-2.1l-.5.3c-.3.2-.8.3-1.2.3-.3 0-.5 0-.7-.1-.6-.2-1.2-.6-1.5-1.2l-1.6-2.8c-.7-1.2-.3-2.7.9-3.4l.5-.3c-1.1-.9-2.3-1.6-3.6-2.1v.6c0 1.4-1.1 2.5-2.5 2.5h-3.2c-1.4 0-2.5-1.1-2.5-2.5v-.6c-1.3.5-2.5 1.2-3.6 2.1l.5.3c1.2.7 1.6 2.2.9 3.3l-1.6 2.8c-.3.6-.9 1-1.5 1.2-.3.1-.5.1-.7.1-.4 0-.8-.1-1.2-.3l-.5-.3c-.3 1.4-.3 2.8 0 4.2l.5-.3c1.2-.7 2.7-.3 3.4.9l1.6 2.8c.7 1.2.3 2.7-.9 3.4l-.5.3c1.1.9 2.3 1.6 3.6 2.1v-.6c0-1.4 1.1-2.5 2.5-2.5h3.2c1.4 0 2.5 1.1 2.5 2.5v.6c1.3-.5 2.5-1.2 3.6-2.1l-.5-.3c-1.2-.7-1.6-2.2-.9-3.4l1.6-2.8c.7-1.2 2.2-1.6 3.4-.9zM13 6.5c3.6 0 6.5 2.9 6.5 6.5s-2.9 6.5-6.5 6.5-6.5-2.9-6.5-6.5S9.4 6.5 13 6.5zm0 12c3 0 5.5-2.5 5.5-5.5S16 7.5 13 7.5 7.5 10 7.5 13s2.5 5.5 5.5 5.5z"/>
</svg>
