<svg xmlns="http://www.w3.org/2000/svg" width="16" height="23" viewBox="0 0 16 23">
    <path fill="#303C42" fill-rule="nonzero" d="M5.176 21.661a.942.942 0 1 1-1.883 0 .942.942 0 0 1 1.883 0zm3.765 0a.942.942 0 1 1-1.883 0 .942.942 0 0 1 1.883 0zm3.765 0a.942.942 0 1 1-1.883 0 .942.942 0 0 1 1.883 0zM7.529.471c0-.26.256-.471.572-.471.315 0 .571.21.571.47V9.89c0 .26-.256.47-.571.47-.316 0-.572-.21-.572-.47V.47zM5 3.413a.47.47 0 1 1 .354.873A7.06 7.06 0 0 0 8 17.895a7.06 7.06 0 0 0 2.647-13.61.471.471 0 0 1 .353-.872 8.003 8.003 0 0 1 5 7.418 8.002 8.002 0 0 1-8 8.005c-4.418 0-8-3.584-8-8.005a8.003 8.003 0 0 1 5-7.418z"/>
</svg>
