<svg xmlns="http://www.w3.org/2000/svg" width="34" height="28" viewBox="0 0 34 28">
    <path fill="#212121" fill-rule="nonzero" d="M13.652 2.223a4 4 0 0 1 6.744 0l12.154 19.05a4 4 0 0 1-3.372 6.151H4.87a4 4 0 0 1-3.372-6.152l12.155-19.05zM2.869 23.424a2 2 0 0 0 2 2h24.31a2 2 0 0 0 1.685-3.076L18.71 3.298a2 2 0 0 0-3.372 0L3.183 22.348a2 2 0 0 0-.314 1.076zm14.564-6.011h-1.53l-.396-5.04v-3.6h2.34v3.6l-.414 5.04zm-.756 1.476c.738 0 1.35.612 1.35 1.35a1.36 1.36 0 0 1-1.35 1.35 1.36 1.36 0 0 1-1.35-1.35c0-.738.576-1.35 1.35-1.35z" opacity=".3"/>
</svg>
