<svg xmlns="http://www.w3.org/2000/svg" width="34" height="32" viewBox="0 0 34 32">
    <path fill="#413D3D" fill-rule="nonzero" d="M11.825 12.793h19.004L16.92 2.439 3.01 12.793H11.826zm0 1.315H5.622v15.777h6.203V14.108zm1.44 0v15.777h7.477V14.108h-7.477zm16.56 0v15.777h2.993c.365 0 .662.323.662.72 0 .398-.297.72-.662.72H1.022c-.365 0-.662-.322-.662-.72 0-.397.297-.72.662-.72h3.16V14.108H1.024c-.637 0-.907-.804-.398-1.183L16.523 1.09a.666.666 0 0 1 .794 0l15.897 11.834c.509.379.239 1.183-.398 1.183h-2.991zm-1.44 0h-6.203v15.777h6.203V14.108z"/>
</svg>
