<svg xmlns="http://www.w3.org/2000/svg" width="24" height="22" viewBox="0 0 24 22">
    <path fill="none" fill-rule="evenodd" stroke="#212121" d="M2.474 20.692l-.002-.016c-.026-.18-.04-.3-.038-.349a23.102 23.102 0 0 1-.068-1.684c0-.935.081-1.779.246-2.53.165-.757.397-1.418.696-1.983a5.162 5.162 0 0 1 1.186-1.496c.47-.408.979-.743 1.525-1.004a8.146 8.146 0 0 1 1.897-.608 17.433 17.433 0 0 1 2.123-.297c.705-.054 1.5-.082 2.39-.082h3.5v3.93c0 .097.03.171.107.248a.327.327 0 0 0 .25.108.327.327 0 0 0 .249-.108l6.857-6.857a.326.326 0 0 0 .108-.25.329.329 0 0 0-.108-.25v.001L16.535.608a.327.327 0 0 0-.25-.108.326.326 0 0 0-.248.108.326.326 0 0 0-.108.25v3.928h-3.5c-6.184 0-9.9 1.711-11.255 5.081C.727 11 .5 12.425.5 14.143c0 1.398.55 3.35 1.661 5.845a25.823 25.823 0 0 0 .313.704z"/>
</svg>
