<svg xmlns="http://www.w3.org/2000/svg" width="28" height="28" viewBox="0 0 28 28">
    <g fill="#FFF" fill-rule="nonzero">
        <path d="M27.611 14c0 7.518-6.094 13.611-13.611 13.611S.389 21.518.389 14C.389 6.482 6.483.389 14 .389S27.611 6.482 27.611 14zm-1.296 0C26.315 7.198 20.8 1.685 14 1.685 7.199 1.685 1.685 7.198 1.685 14S7.2 26.315 14 26.315c6.801 0 12.315-5.513 12.315-12.315z"/>
        <path d="M21.975 14a7.975 7.975 0 1 1-15.95 0 7.975 7.975 0 1 1 15.95 0zm-1.296 0a6.679 6.679 0 1 0-13.357 0 6.679 6.679 0 0 0 13.357 0z"/>
        <path d="M13.352 1.037v5.636a.648.648 0 1 0 1.296 0V1.037a.648.648 0 1 0-1.296 0zM13.352 21.327v5.636a.648.648 0 0 0 1.296 0v-5.636a.648.648 0 0 0-1.296 0zM8.957 2.04l1.928 5.296a.648.648 0 0 0 1.218-.443l-1.927-5.296a.648.648 0 0 0-1.219.443zM15.897 21.107l1.927 5.296a.648.648 0 0 0 1.219-.444l-1.928-5.295a.648.648 0 1 0-1.218.443zM5.171 4.486l3.623 4.318a.648.648 0 0 0 .993-.834L6.164 3.653a.648.648 0 1 0-.993.833zM18.213 20.03l3.623 4.317a.648.648 0 1 0 .993-.833l-3.623-4.318a.648.648 0 1 0-.993.834zM2.45 8.08l4.88 2.818a.648.648 0 1 0 .648-1.123l-4.88-2.818a.648.648 0 0 0-.649 1.123zM20.021 18.225l4.881 2.818a.648.648 0 1 0 .648-1.123l-4.88-2.818a.648.648 0 0 0-.649 1.123zM1.122 12.387l5.55.979a.648.648 0 0 0 .225-1.277l-5.55-.978a.648.648 0 1 0-.225 1.276zM21.103 15.91l5.55.98a.648.648 0 0 0 .226-1.277l-5.55-.979a.648.648 0 1 0-.226 1.277zM1.347 16.89l5.55-.979a.648.648 0 1 0-.225-1.277l-5.55.979a.648.648 0 0 0 .225 1.276zM21.328 13.366l5.55-.979a.648.648 0 1 0-.224-1.276l-5.55.978a.648.648 0 1 0 .224 1.277zM3.098 21.043l4.88-2.818a.648.648 0 1 0-.648-1.123L2.45 19.92a.648.648 0 0 0 .648 1.123zM20.67 10.898l4.88-2.818a.648.648 0 1 0-.648-1.123l-4.88 2.818a.648.648 0 1 0 .648 1.123zM6.164 24.347l3.623-4.317a.648.648 0 1 0-.993-.834L5.17 23.514a.648.648 0 1 0 .993.833zM19.206 8.804l3.623-4.318a.648.648 0 1 0-.993-.833L18.213 7.97a.648.648 0 0 0 .993.834zM10.176 26.403l1.927-5.296a.648.648 0 0 0-1.218-.443L8.957 25.96a.648.648 0 1 0 1.219.443zM17.115 7.336l1.928-5.295a.648.648 0 0 0-1.219-.444l-1.927 5.296a.648.648 0 0 0 1.218.443zM16.339 14a2.339 2.339 0 1 1-4.678 0 2.339 2.339 0 0 1 4.678 0zm-1.296 0a1.043 1.043 0 1 0-2.085 0 1.043 1.043 0 0 0 2.085 0zM15.212 10.055a1.212 1.212 0 1 1-2.424 0 1.212 1.212 0 0 1 2.424 0zm-1.297 0a.084.084 0 1 0 .17 0 .084.084 0 1 0-.17 0zM15.212 17.945a1.212 1.212 0 1 1-2.424 0 1.212 1.212 0 0 1 2.424 0zm-1.297 0a.084.084 0 1 0 .17 0 .084.084 0 1 0-.17 0z"/>
        <path d="M14.648 17.945v-2.254a.648.648 0 1 0-1.296 0v2.254a.648.648 0 0 0 1.296 0zM13.352 10.055v2.254a.648.648 0 1 0 1.296 0v-2.254a.648.648 0 1 0-1.296 0zM17.945 15.212a1.212 1.212 0 1 1 0-2.424 1.212 1.212 0 0 1 0 2.424zm0-1.297a.084.084 0 1 0 0 .17.084.084 0 1 0 0-.17zM10.055 15.212a1.212 1.212 0 1 1 0-2.424 1.212 1.212 0 0 1 0 2.424zm0-1.297a.084.084 0 1 0 0 .17.084.084 0 1 0 0-.17z"/>
        <path d="M10.055 14.648h2.254a.648.648 0 1 0 0-1.296h-2.254a.648.648 0 1 0 0 1.296zM17.945 13.352h-2.254a.648.648 0 1 0 0 1.296h2.254a.648.648 0 0 0 0-1.296z"/>
    </g>
</svg>
