<svg xmlns="http://www.w3.org/2000/svg" width="29" height="17" viewBox="0 0 29 17">
    <g fill="none" fill-rule="evenodd">
        <path fill="#212121" fill-rule="nonzero" d="M.84 8h19.32V4.913H.84V8zm0 .825v5.447c0 .564.409 1.008.895 1.008h17.53c.486 0 .895-.444.895-1.008V8.825H.84zM.84 4h19.32V2.848c0-.564-.409-1.008-.895-1.008H1.735c-.486 0-.895.444-.895 1.008V4zM0 14.272V2.848C0 1.835.768 1 1.735 1h17.53C20.232 1 21 1.835 21 2.848v11.424c0 1.013-.768 1.848-1.735 1.848H1.735C.768 16.12 0 15.285 0 14.272z"/>
        <g transform="translate(16 1)">
            <circle cx="6" cy="6" r="6" fill="#FFF" stroke="#212121"/>
            <text fill="#212121" font-family="Gilroy-Regular, Gilroy" font-size="7">
                <tspan x="1.235" y="8">123</tspan>
            </text>
        </g>
    </g>
</svg>
