<?xml version="1.0" encoding="UTF-8"?>
<svg width="31px" height="23px" viewBox="0 0 31 23" version="1.1" xmlns="http://www.w3.org/2000/svg" xmlns:xlink="http://www.w3.org/1999/xlink">
    <!-- Generator: Sketch 55.1 (78136) - https://sketchapp.com -->
    <title>cash-out</title>
    <desc>Created with Sketch.</desc>
    <g id="Website---Slots" stroke="none" stroke-width="1" fill="none" fill-rule="evenodd">
        <g id="1-Website-Not-Logged-In" transform="translate(-1096.000000, -24.000000)">
            <g id="navigation">
                <g id="Login-Elements" transform="translate(1076.000000, 13.000000)">
                    <g id="Open-Account" transform="translate(0.000000, 0.386719)">
                        <g id="cash-out" transform="translate(20.000000, 11.000000)">
                            <circle id="Oval" stroke="#FFFFFF" opacity="0.699999988" cx="14.6666667" cy="11" r="10.5"></circle>
                            <circle id="Oval" stroke="#FFFFFF" opacity="0.5" cx="11" cy="11" r="10.5"></circle>
                            <circle id="Oval" fill="#FF0000" cx="19.5555556" cy="11" r="9.77777778"></circle>
                            <path d="M18.6388889,16.5 L16.8055556,16.5 C16.2992945,16.5 15.8888889,16.0895944 15.8888889,15.5833333 C15.8888889,15.0770723 16.2992945,14.6666667 16.8055556,14.6666667 L20.0138889,14.6666667 C20.7726279,14.6666667 21.3888889,14.0504056 21.3888889,13.2916667 C21.3888889,12.5329277 20.7726279,11.9166667 20.0138889,11.9166667 L19.0972222,11.9166667 C17.3259612,11.9166667 15.8888889,10.4795944 15.8888889,8.70833333 C15.8888889,7.09267852 17.084557,5.75507428 18.6388889,5.53252498 L18.6388889,4.58333333 C18.6388889,4.07707231 19.0492945,3.66666667 19.5555556,3.66666667 C20.0618166,3.66666667 20.4722222,4.07707231 20.4722222,4.58333333 L20.4722222,5.5 L22.3055556,5.5 C22.8118166,5.5 23.2222222,5.91040565 23.2222222,6.41666667 C23.2222222,6.92292769 22.8118166,7.33333333 22.3055556,7.33333333 L19.0972222,7.33333333 C18.3384832,7.33333333 17.7222222,7.94959435 17.7222222,8.70833333 C17.7222222,9.46707231 18.3384832,10.0833333 19.0972222,10.0833333 L20.0138889,10.0833333 C21.7851499,10.0833333 23.2222222,11.5204056 23.2222222,13.2916667 C23.2222222,14.9073215 22.0265541,16.2449257 20.4722222,16.467475 L20.4722222,17.4166667 C20.4722222,17.9229277 20.0618166,18.3333333 19.5555556,18.3333333 C19.0492945,18.3333333 18.6388889,17.9229277 18.6388889,17.4166667 L18.6388889,16.5 Z M30.5555556,11 C30.5555556,17.0753203 25.6302574,22 19.5555556,22 C13.4796279,22 8.55555556,17.0759277 8.55555556,11 C8.55555556,4.92407231 13.4796279,0 19.5555556,0 C25.6302574,0 30.5555556,4.92467968 30.5555556,11 Z M28.7222222,11 C28.7222222,5.93725326 24.6177869,1.83333333 19.5555556,1.83333333 C14.4921499,1.83333333 10.3888889,5.93659435 10.3888889,11 C10.3888889,16.0634056 14.4921499,20.1666667 19.5555556,20.1666667 C24.6177869,20.1666667 28.7222222,16.0627467 28.7222222,11 Z" id="crypto" fill="#FFFFFF" fill-rule="nonzero"></path>
                        </g>
                    </g>
                </g>
            </g>
        </g>
    </g>
</svg>