<svg xmlns="http://www.w3.org/2000/svg" width="52" height="51" viewBox="0 0 52 51">
    <defs>
        <filter id="a" width="106.7%" height="133.6%" x="-2.6%" y="-13.3%" filterUnits="objectBoundingBox">
            <feOffset in="SourceAlpha" result="shadowOffsetOuter1"/>
            <feGaussianBlur in="shadowOffsetOuter1" result="shadowBlurOuter1" stdDeviation="3"/>
            <feColorMatrix in="shadowBlurOuter1" result="shadowMatrixOuter1" values="0 0 0 0 0.688405797 0 0 0 0 0.688405797 0 0 0 0 0.688405797 0 0 0 0.0945148601 0"/>
            <feMerge>
                <feMergeNode in="shadowMatrixOuter1"/>
                <feMergeNode in="SourceGraphic"/>
            </feMerge>
        </filter>
    </defs>
    <path fill="#000" fill-opacity=".85" fill-rule="nonzero" d="M58.509 30.501v6.578a17.571 17.571 0 0 0 3.646-.701l-2.243-6.16c-.456.123-.925.218-1.403.283zm3.148-.919l2.243 6.16a17.624 17.624 0 0 0 3.714-2.148l-4.213-5.02c-.547.386-1.13.724-1.744 1.008zm3.166-2.203l4.213 5.02a17.73 17.73 0 0 0 2.76-3.285l-5.677-3.277a11.16 11.16 0 0 1-1.296 1.542zm2.225-3.15l5.678 3.278a17.518 17.518 0 0 0 1.467-4.033l-6.456-1.138c-.173.657-.404 1.29-.689 1.893zm1.01-3.722l6.456 1.138a17.824 17.824 0 0 0 0-4.29l-6.456 1.138a11.245 11.245 0 0 1 0 2.014zm-.32-3.843l6.455-1.138a17.518 17.518 0 0 0-1.467-4.033l-5.678 3.278c.285.603.516 1.236.69 1.893zm-1.62-3.5l5.678-3.278a17.73 17.73 0 0 0-2.76-3.286l-4.213 5.021c.477.473.91.99 1.296 1.542zm-2.717-2.737l4.213-5.021A17.624 17.624 0 0 0 63.9 3.257l-2.243 6.161c.614.284 1.197.622 1.744 1.009zm-3.489-1.644l2.243-6.161a17.571 17.571 0 0 0-3.646-.701v6.578c.478.065.947.16 1.403.284zm-3.84-.348V1.881c-1.464.076-2.88.33-4.227.741l2.243 6.16c.64-.173 1.303-.29 1.983-.347zm-3.73.983L50.1 3.258a17.624 17.624 0 0 0-3.714 2.148l4.213 5.02c.547-.386 1.13-.724 1.744-1.008zm-3.165 2.203l-4.213-5.02a17.73 17.73 0 0 0-2.76 3.285l5.677 3.277a11.16 11.16 0 0 1 1.296-1.542zm-2.226 3.15l-5.677-3.278a17.518 17.518 0 0 0-1.467 4.032l6.456 1.138c.173-.656.404-1.289.688-1.892zm-1.009 3.721l-6.456-1.138a17.824 17.824 0 0 0 0 4.292l6.456-1.138a11.245 11.245 0 0 1 0-2.016zm.32 3.845l-6.455 1.138a17.518 17.518 0 0 0 1.467 4.032l5.677-3.278a11.023 11.023 0 0 1-.688-1.892zm1.62 3.5l-5.678 3.277a17.73 17.73 0 0 0 2.76 3.286l4.213-5.021a11.16 11.16 0 0 1-1.296-1.542zm2.717 2.736l-4.213 5.021a17.624 17.624 0 0 0 3.714 2.149l2.243-6.161a11.091 11.091 0 0 1-1.744-1.009zm3.489 1.644l-2.243 6.161c1.348.411 2.763.665 4.226.74v-6.553a11.068 11.068 0 0 1-1.983-.348zM57 28.454a8.954 8.954 0 1 0 0-17.908 8.954 8.954 0 0 0 0 17.908zm.406 10.542a1.617 1.617 0 0 1-.18.003L57 39c-10.77 0-19.5-8.73-19.5-19.5S46.23 0 57 0a19.904 19.904 0 0 1 .406.004C67.988.22 76.5 8.866 76.5 19.5c0 10.634-8.512 19.28-19.094 19.496zm2.587-17.987a3.365 3.365 0 0 1-1.484 1.484v1.8a1.736 1.736 0 1 1-2.438-.608v-.964a3.36 3.36 0 0 1-2.064-1.712h-1.8a1.736 1.736 0 1 1 .608-2.438h.964a3.358 3.358 0 0 1 2.292-2.292v-.964A1.735 1.735 0 0 1 57 12.112a1.736 1.736 0 0 1 1.509 2.595v1.8a3.36 3.36 0 0 1 1.712 2.064h.964a1.735 1.735 0 0 1 3.203.929 1.736 1.736 0 0 1-2.595 1.509h-1.8zm-1.5-1.509a1.494 1.494 0 1 0-2.986 0 1.494 1.494 0 0 0 2.987 0z" filter="url(#a)" transform="translate(-31 6)"/>
</svg>
