<svg xmlns="http://www.w3.org/2000/svg" width="98" height="98" viewBox="0 0 98 98">
    <path fill="#6A6A6A" fill-rule="nonzero" d="M34.34 49.135l8.606 8.562 21.132-21.024a1.118 1.118 0 1 1 1.577 1.586l-21.92 21.809a1.118 1.118 0 0 1-1.578 0l-9.394-9.347a1.118 1.118 0 1 1 1.578-1.586zM48.65 97.3C21.781 97.3 0 75.519 0 48.65S21.781 0 48.65 0 97.3 21.781 97.3 48.65 75.519 97.3 48.65 97.3zm0-2.237c25.633 0 46.413-20.78 46.413-46.413 0-25.633-20.78-46.413-46.413-46.413-25.633 0-46.413 20.78-46.413 46.413 0 25.633 20.78 46.413 46.413 46.413z"/>
</svg>
