<?xml version="1.0" encoding="UTF-8"?>
<svg width="139px" height="139px" viewBox="0 0 139 139" version="1.1" xmlns="http://www.w3.org/2000/svg" xmlns:xlink="http://www.w3.org/1999/xlink">
    <!-- Generator: Sketch 55.2 (78181) - https://sketchapp.com -->
    <title>complete-icon</title>
    <desc>Created with Sketch.</desc>
    <g id="Deposit-Withdraw" stroke="none" stroke-width="1" fill="none" fill-rule="evenodd">
        <g id="5-success" transform="translate(-110.000000, -165.000000)" fill="#32a852" fill-rule="nonzero">
            <g id="complete-icon" transform="translate(110.000000, 165.000000)">
                <path d="M49.0578867,70.1933132 L61.3517241,82.4244269 L91.5398144,52.3903575 C92.1653492,51.7680142 93.1769543,51.7706014 93.7992977,52.3961362 C94.421641,53.0216711 94.4190537,54.0332762 93.7935189,54.6556195 L62.4785764,85.8107919 C61.8553029,86.4308855 60.8481454,86.4308855 60.2248719,85.8107919 L46.8041822,72.4585752 C46.1786474,71.8362318 46.1760602,70.8246267 46.7984035,70.1990919 C47.4207468,69.5735571 48.4323519,69.5709699 49.0578867,70.1933132 Z M69.5,139 C31.1162099,139 0,107.88379 0,69.5 C0,31.1162099 31.1162099,0 69.5,0 C107.88379,0 139,31.1162099 139,69.5 C139,107.88379 107.88379,139 69.5,139 Z M69.5,135.804598 C106.119018,135.804598 135.804598,106.119018 135.804598,69.5 C135.804598,32.8809818 106.119018,3.1954023 69.5,3.1954023 C32.8809818,3.1954023 3.1954023,32.8809818 3.1954023,69.5 C3.1954023,106.119018 32.8809818,135.804598 69.5,135.804598 Z"></path>
            </g>
        </g>
    </g>
</svg>