<svg xmlns="http://www.w3.org/2000/svg" width="31" height="22" viewBox="0 0 31 22">
    <g fill="none" fill-rule="evenodd">
        <circle cx="14.667" cy="11" r="10.5" stroke="#FFF" opacity=".7"/>
        <circle cx="11" cy="11" r="10.5" stroke="#FFF" opacity=".5"/>
        <circle cx="19.556" cy="11" r="9.778" fill="#F00"/>
        <path fill="#FFF" fill-rule="nonzero" d="M30.556 11c0 6.075-4.926 11-11 11-6.076 0-11-4.924-11-11s4.924-11 11-11c6.074 0 11 4.925 11 11zm-11-5a1 1 0 0 1 1 1v8a1 1 0 0 1-2 0V7a1 1 0 0 1 1-1zm5 5a1 1 0 0 1-1 1h-8a1 1 0 1 1 0-2h8a1 1 0 0 1 1 1zm4.166 0a9.167 9.167 0 0 0-9.166-9.167A9.166 9.166 0 0 0 10.389 11a9.166 9.166 0 0 0 9.167 9.167A9.167 9.167 0 0 0 28.722 11z"/>
    </g>
</svg>
