<?xml version="1.0" encoding="UTF-8"?>
<svg width="31px" height="23px" viewBox="0 0 31 23" version="1.1" xmlns="http://www.w3.org/2000/svg" xmlns:xlink="http://www.w3.org/1999/xlink">
    <!-- Generator: Sketch 55.1 (78136) - https://sketchapp.com -->
    <title>deposit</title>
    <desc>Created with Sketch.</desc>
    <g id="Symbols" stroke="none" stroke-width="1" fill="none" fill-rule="evenodd">
        <g id="navigation-language-selections" transform="translate(-1096.000000, -24.000000)">
            <g id="navigation">
                <g id="Login-Elements" transform="translate(1076.000000, 13.000000)">
                    <g id="Open-Account" transform="translate(0.000000, 0.386719)">
                        <g id="deposit" transform="translate(20.000000, 11.000000)">
                            <circle id="Oval" stroke="#FFFFFF" opacity="0.699999988" cx="14.6666667" cy="11" r="10.5"></circle>
                            <circle id="Oval" stroke="#FFFFFF" opacity="0.5" cx="11" cy="11" r="10.5"></circle>
                            <circle id="Oval" fill="#FF0000" cx="19.5555556" cy="11" r="9.77777778"></circle>
                            <path d="M30.5555556,11 C30.5555556,17.0753203 25.6302574,22 19.5555556,22 C13.4796279,22 8.55555556,17.0759277 8.55555556,11 C8.55555556,4.92407231 13.4796279,0 19.5555556,0 C25.6302574,0 30.5555556,4.92467968 30.5555556,11 Z M19.5555556,6 C20.1078403,6 20.5555556,6.44771525 20.5555556,7 L20.5555556,15 C20.5555556,15.5522847 20.1078403,16 19.5555556,16 C19.0032708,16 18.5555556,15.5522847 18.5555556,15 L18.5555556,7 C18.5555556,6.44771525 19.0032708,6 19.5555556,6 Z M24.5555556,11 C24.5555556,11.5522847 24.1078403,12 23.5555556,12 L15.5555556,12 C15.0032708,12 14.5555556,11.5522847 14.5555556,11 C14.5555556,10.4477153 15.0032708,10 15.5555556,10 L23.5555556,10 C24.1078403,10 24.5555556,10.4477153 24.5555556,11 Z M28.7222222,11 C28.7222222,5.93725326 24.6177869,1.83333333 19.5555556,1.83333333 C14.4921499,1.83333333 10.3888889,5.93659435 10.3888889,11 C10.3888889,16.0634056 14.4921499,20.1666667 19.5555556,20.1666667 C24.6177869,20.1666667 28.7222222,16.0627467 28.7222222,11 Z" id="crypto" fill="#FFFFFF" fill-rule="nonzero"></path>
                        </g>
                    </g>
                </g>
            </g>
        </g>
    </g>
</svg>