<svg xmlns="http://www.w3.org/2000/svg" width="18" height="11" viewBox="0 0 18 11">
    <path fill="#212121" fill-rule="evenodd" d="M9 0C5.56 0 2.442 1.882.14 4.938a.713.713 0 0 0 0 .85C2.443 8.848 5.56 10.73 9 10.73c3.44 0 6.558-1.882 8.86-4.938a.712.712 0 0 0 0-.85C15.557 1.881 12.44 0 9 0zm.247 9.143a3.788 3.788 0 0 1-4.025-4.025 3.794 3.794 0 0 1 3.531-3.531 3.788 3.788 0 0 1 4.025 4.025 3.806 3.806 0 0 1-3.531 3.53zm-.114-1.746a2.035 2.035 0 0 1-2.166-2.165A2.047 2.047 0 0 1 8.871 3.33a2.035 2.035 0 0 1 2.165 2.165 2.047 2.047 0 0 1-1.903 1.903z" opacity=".3"/>
</svg>
