<svg xmlns="http://www.w3.org/2000/svg" width="32" height="24" viewBox="0 0 32 24">
    <path fill="#FFF" fill-rule="nonzero" d="M8 9.333H6a.667.667 0 0 1-.666-.666V7.333c0-.368.298-.666.667-.666h2v-2C8 4.298 8.299 4 8.667 4h1.334c.368 0 .666.298.666.667v2h2c.369 0 .667.298.667.666v1.334a.667.667 0 0 1-.667.666h-2v2a.667.667 0 0 1-.666.667H8.667a.667.667 0 0 1-.666-.667v-2zm16-4a1.334 1.334 0 1 1-2.666 0 1.334 1.334 0 0 1 2.667 0zM21.335 8a1.334 1.334 0 1 1-2.667 0 1.334 1.334 0 0 1 2.667 0zm5.333 0A1.334 1.334 0 1 1 24 8a1.334 1.334 0 0 1 2.667 0zm-2.666 2.667a1.334 1.334 0 1 1-2.667 0 1.334 1.334 0 0 1 2.667 0zM7.557 21.988A4.055 4.055 0 0 1 0 19.945V18.26c0-.207.016-.413.048-.616L1.632 7.349A8.666 8.666 0 0 1 10.197 0h11.607a8.667 8.667 0 0 1 8.566 7.35l1.583 10.291c.032.201.047.407.047.618v1.686a4.054 4.054 0 0 1-7.556 2.043L20.95 16h-9.9l-3.493 5.988zM21.804 1.333H10.197a7.333 7.333 0 0 0-7.247 6.22L1.365 17.846a2.667 2.667 0 0 0-.032.412v1.686a2.722 2.722 0 0 0 5.072 1.371l3.686-6.319a.667.667 0 0 1 .576-.33h10.666c.237 0 .457.126.576.33l3.687 6.319a2.722 2.722 0 0 0 5.07-1.37v-1.687c0-.143-.01-.28-.03-.414L29.052 7.552a7.334 7.334 0 0 0-7.248-6.219z"/>
</svg>
