<svg xmlns="http://www.w3.org/2000/svg" width="20" height="20" viewBox="0 0 20 20">
    <path fill="#303C42" fill-rule="nonzero" d="M10.996 14.602l2.19-1.649a1.594 1.594 0 0 1 1.637-.387 11.42 11.42 0 0 0 3.572.57A1.61 1.61 0 0 1 20 14.743v3.665c0 .884-.72 1.605-1.605 1.605C8.235 20.013 0 11.773 0 1.607 0 .72.72 0 1.606 0h3.672c.884 0 1.605.721 1.605 1.607 0 1.234.194 2.437.572 3.581.18.574.035 1.196-.348 1.573L5.408 9.012c1.368 2.576 2.997 4.205 5.588 5.59zM4.31 8.622l1.96-2.588a.497.497 0 0 0 .128-.505 12.47 12.47 0 0 1-.626-3.922.497.497 0 0 0-.494-.495H1.606a.497.497 0 0 0-.495.495c0 9.553 7.737 17.294 17.284 17.294.27 0 .494-.223.494-.493v-3.665a.498.498 0 0 0-.494-.495c-1.344 0-2.672-.214-3.928-.628-.167-.058-.364-.012-.553.17l-2.53 1.911a.555.555 0 0 1-.588.051c-3.082-1.58-4.978-3.475-6.538-6.543a.556.556 0 0 1 .052-.587zm6.801-.839a1.112 1.112 0 1 1-2.223 0 1.112 1.112 0 0 1 2.223 0zm4.445 0a1.112 1.112 0 1 1-2.224 0 1.112 1.112 0 0 1 2.224 0zm4.444 0a1.112 1.112 0 1 1-2.223 0 1.112 1.112 0 0 1 2.223 0z"/>
</svg>
