<svg xmlns="http://www.w3.org/2000/svg" width="75" height="32" viewBox="0 0 75 32">
    <path fill="#F00" fill-rule="evenodd" d="M42.28 17.7c.66-2.81 2.724-4.435 5.755-4.435 2.591 0 4.788 1.449 5.446 4.435h-11.2zm16.647 4.393c.132-.834.22-1.581.22-2.328 0-3.294-1.054-6.018-3.163-8.257-2.064-2.24-4.743-3.339-7.949-3.339-3.383 0-6.193 1.098-8.346 3.339-2.152 2.195-3.25 4.963-3.25 8.257 0 3.338 1.098 6.106 3.294 8.302 2.195 2.196 5.095 3.294 8.74 3.294 4.218 0 7.424-1.581 9.576-4.7l-4.568-2.635c-1.098 1.449-2.768 2.195-4.92 2.195-3.382 0-5.445-1.36-6.193-4.128h16.56zM6.985 3.513C6.985 1.626 5.405 0 3.471 0 1.58 0 0 1.625 0 3.514c0 1.888 1.582 3.47 3.47 3.47 1.934 0 3.515-1.582 3.515-3.47zM75 14.232V8.785h-4.963V1.549h-1.303l-4.362 3.9v3.336H60.55V14.23h3.822v9.135c0 6.018 2.854 8.259 10.628 7.38v-5.14c-3.25.177-4.963.133-4.963-2.24v-9.135H75zm-48.063 1.097c-1.141-1.185-2.59-1.756-4.348-1.756-1.757 0-3.206.571-4.348 1.756-1.141 1.143-1.714 2.636-1.714 4.437 0 1.8.573 3.295 1.714 4.48 1.142 1.142 2.591 1.714 4.348 1.714 1.758 0 3.207-.572 4.348-1.714 1.187-1.185 1.758-2.68 1.758-4.48 0-1.8-.57-3.294-1.758-4.437zm4.261 12.695c-2.064 2.24-4.612 3.338-7.554 3.338-3.076 0-5.447-1.054-7.117-3.207v2.592h-5.665V4.197L15.557 0h.97v11.375c1.67-2.152 4.041-3.206 7.117-3.206 2.942 0 5.49 1.141 7.554 3.382 2.11 2.24 3.163 4.963 3.163 8.214 0 3.25-1.054 6.018-3.163 8.258zM5.808 9.29h.519v21.456H.66V13.893L5.808 9.29z"/>
</svg>
