<svg xmlns="http://www.w3.org/2000/svg" xmlns:xlink="http://www.w3.org/1999/xlink" width="52" height="51" viewBox="0 0 52 51">
    <defs>
        <rect id="a" width="52" height="52" rx="8"/>
    </defs>
    <g fill="none" fill-rule="evenodd">
        <mask id="b" fill="#fff">
            <use xlink:href="#a"/>
        </mask>
        <use fill="#8DC640" xlink:href="#a"/>
        <path fill="#FFF" fill-rule="nonzero" d="M43.401 26.017c-.227.158-.558.236-1.01.236h-.447l.343-1.855H42.617c.375 0 .649.06.837.183.148.096.322.286.322.647 0 .435-.203.669-.375.789zm-26.722 2.328h-3.467l.224-1.213h2.175l.247-1.366h-2.154l.209-1.2h3.46l-.694 3.779zm28.59-4.82c-.51-.349-1.281-.525-2.293-.525h-2.648l-.985 5.345h-3.469l.223-1.213h2.09l.248-1.362-2.089.004.224-1.207h2.152L39.01 23h-4.373l-.934 5.07h-1.603L33.04 23h-2.286l-.934 5.07h-1.564L29.2 23h-2.284l-.987 5.345h-3.494l.22-1.212h2.1L25 25.778l-2.096-.002.222-1.21h2.177L25.589 23H11.967l-.775 4.236L9.647 23H7.276L6 29.912h2.264l.772-4.352 1.5 4.352h8.114l.987-5.346h1.27l-.988 5.346h21.353l.619-3.374 1.002 3.374h2.265l-1.037-2.757.236-.051c.523-.112.931-.353 1.215-.714.284-.364.428-.832.428-1.393 0-.654-.239-1.135-.731-1.472z" mask="url(#b)"/>
    </g>
</svg>
