<svg xmlns="http://www.w3.org/2000/svg" width="18" height="24" viewBox="0 0 18 24">
    <path fill="#212121" fill-rule="nonzero" d="M4.505 9.341V7.466a4.69 4.69 0 0 1 9.38 0V9.34h.937V7.466a5.627 5.627 0 1 0-11.255 0V9.34h.938zm.938 0h7.503V7.466a3.752 3.752 0 0 0-7.503 0V9.34zm-2.814 0V7.466a6.565 6.565 0 1 1 13.131 0V9.34h1.407c.26 0 .47.21.47.47v11.724c0 1.036-.84 1.876-1.877 1.876H2.63a1.876 1.876 0 0 1-1.877-1.876V9.81c0-.259.21-.469.47-.469h1.406zm-.938 12.194c0 .518.42.938.938.938H15.76c.518 0 .938-.42.938-.938V10.279H1.691v11.256zm6.1-2.397l.296-2.66a1.866 1.866 0 0 1-.768-1.509 1.876 1.876 0 1 1 3.752 0c0 .608-.294 1.162-.768 1.508l.296 2.66a.469.469 0 0 1-.466.522H8.257a.469.469 0 0 1-.466-.521zm.99-.417h.828l-.272-2.437a.469.469 0 0 1 .262-.474.934.934 0 0 0-.404-1.779.934.934 0 1 0-.404 1.78.469.469 0 0 1 .261.473l-.271 2.437z" opacity=".5"/>
</svg>
