<svg xmlns="http://www.w3.org/2000/svg" width="20" height="27" viewBox="0 0 20 27">
    <path fill="#FFF" fill-rule="nonzero" d="M10 3.306A2.672 2.672 0 0 0 12.672.634c0-.35.284-.634.634-.634h4.407A2.287 2.287 0 0 1 20 2.287v22.038a2.287 2.287 0 0 1-2.287 2.287h-4.407a.634.634 0 0 1-.634-.634 2.672 2.672 0 1 0-5.344 0c0 .35-.284.634-.634.634H2.287A2.287 2.287 0 0 1 0 24.325V2.287A2.287 2.287 0 0 1 2.287 0h4.407c.35 0 .634.284.634.634A2.672 2.672 0 0 0 10 3.306zm7.713-2.039H13.89a3.94 3.94 0 0 1-7.778 0H2.287a1.02 1.02 0 0 0-1.02 1.02v22.038c0 .563.457 1.02 1.02 1.02H6.11a3.94 3.94 0 0 1 7.778 0h3.824a1.02 1.02 0 0 0 1.02-1.02V2.287a1.02 1.02 0 0 0-1.02-1.02zM2.7 20a.634.634 0 1 1 0-1.267h1.24a.634.634 0 0 1 0 1.267H2.7zm4.545 0a.634.634 0 0 1 0-1.267h1.102a.634.634 0 0 1 0 1.267H7.245zm4.408 0a.634.634 0 1 1 0-1.267h1.102a.634.634 0 0 1 0 1.267h-1.102zm4.408 0a.634.634 0 0 1 0-1.267h1.102a.634.634 0 0 1 0 1.267H16.06zM13.475 8.038a.937.937 0 0 1 1.144.918c0 .194-.06.386-.175.546l-1.142 1.6 1.142 1.599a.937.937 0 0 1 .018 1.066.94.94 0 0 1-.987.399l-2.209-.492-1.471 1.718a.94.94 0 0 1-1.65-.508L7.903 12.7l-1.913-.718a.94.94 0 0 1 .001-1.76l1.912-.717.243-2.19a.944.944 0 0 1 .655-.79c.36-.111.751.002.994.287l1.471 1.718 2.21-.491zm-2.305 1.81a.634.634 0 0 1-.619-.205l-1.23-1.436-.201 1.824a.634.634 0 0 1-.408.523l-1.46.548 1.46.547c.224.084.381.286.408.524l.202 1.823 1.23-1.435a.634.634 0 0 1 .618-.206l1.747.388-.91-1.273a.634.634 0 0 1 0-.736l.91-1.274-1.747.389z"/>
</svg>
