<svg xmlns="http://www.w3.org/2000/svg" width="30" height="19" viewBox="0 0 30 19">
    <g fill="none" fill-rule="evenodd">
        <path fill="#FF5F00" d="M11.462 16.752h7.872V2.604h-7.872z"/>
        <path fill="#EB001B" d="M11.961 9.678a8.982 8.982 0 0 1 3.437-7.074A8.998 8.998 0 0 0 .84 9.678a8.998 8.998 0 0 0 14.558 7.074 8.982 8.982 0 0 1-3.437-7.074"/>
        <path fill="#F79E1B" d="M29.675 15.254v-.35h-.091l-.105.24-.105-.24h-.091v.35h.064v-.264l.098.227h.067l.098-.227v.264h.065zm-.578 0v-.29h.117v-.06h-.297v.06h.116v.29h.064zm.859-5.576a8.997 8.997 0 0 1-14.558 7.074 8.982 8.982 0 0 0 3.436-7.074 8.982 8.982 0 0 0-3.436-7.074 8.997 8.997 0 0 1 14.558 7.074z"/>
    </g>
</svg>
