<svg xmlns="http://www.w3.org/2000/svg" width="324" height="48" viewBox="0 0 324 48">
    <g fill="none" fill-rule="evenodd">
        <rect width="322.88" height="46.88" x=".56" y=".56" fill="#FFF" stroke="#E4E4E4" stroke-width="1.12" rx="2.24"/>
        <text fill="#212121" font-family="Gilroy-Semibold, Gilroy" font-size="15" font-weight="500" letter-spacing=".346">
            <tspan x="14" y="29">CONFIRM PASSWORD</tspan>
        </text>
        <path fill="#212121" d="M291 19c-3.44 0-6.558 1.882-8.86 4.938a.713.713 0 0 0 0 .85c2.302 3.06 5.42 4.942 8.86 4.942 3.44 0 6.558-1.882 8.86-4.938a.712.712 0 0 0 0-.85C297.557 20.881 294.44 19 291 19zm.247 9.143a3.788 3.788 0 0 1-4.025-4.025 3.794 3.794 0 0 1 3.531-3.531 3.788 3.788 0 0 1 4.025 4.025 3.806 3.806 0 0 1-3.531 3.53zm-.114-1.746a2.035 2.035 0 0 1-2.166-2.165 2.047 2.047 0 0 1 1.904-1.903 2.035 2.035 0 0 1 2.165 2.165 2.047 2.047 0 0 1-1.903 1.903z" opacity=".3"/>
    </g>
</svg>
