<svg id="图层_1" data-name="图层 1" width="20px" height="20px"  xmlns="http://www.w3.org/2000/svg" viewBox="0 0 27.14 27.14"><defs><style>.cls-1{fill:#1e1e1e;}.cls-2{fill:#8f8f8f;}</style></defs><title>oval-info</title><path class="cls-1" d="M14,.33A13.57,13.57,0,1,0,27.54,13.9,13.58,13.58,0,0,0,14,.33ZM11.38,20.09a6.33,6.33,0,0,1,0-.76c0-.26.09-.55.17-.88l.88-3.12c.08-.3.15-.58.2-.84a4.07,4.07,0,0,0,.08-.74,1.11,1.11,0,0,0-.25-.83,1.41,1.41,0,0,0-.94-.23,2.52,2.52,0,0,0-.7.1c-.2.07-.41.13-.61.21l.23-1c.58-.24,1.13-.43,1.66-.6a4.59,4.59,0,0,1,1.49-.26,2.84,2.84,0,0,1,2,.62,2,2,0,0,1,.69,1.59c0,.14,0,.38-.05.71a4.21,4.21,0,0,1-.17.94l-.88,3.11A8,8,0,0,0,15,19a4.41,4.41,0,0,0-.09.73,1.06,1.06,0,0,0,.28.84,1.54,1.54,0,0,0,1,.22,2.53,2.53,0,0,0,.72-.11,3.25,3.25,0,0,0,.59-.2l-.24,1h0l-1.68.63a4.28,4.28,0,0,1-1.46.22,2.88,2.88,0,0,1-2-.63A2,2,0,0,1,11.38,20.09ZM17.07,8.85h0a2.08,2.08,0,0,1-1.48.57,2.11,2.11,0,0,1-1.48-.57,1.82,1.82,0,0,1-.62-1.38,1.85,1.85,0,0,1,.62-1.39,2.13,2.13,0,0,1,1.48-.57,2.09,2.09,0,0,1,1.48.57,1.89,1.89,0,0,1,0,2.78Z" transform="translate(-0.4 -0.33)"/><path class="cls-2" d="M15.54,22.08l1.68-.63h0l.24-1a3.25,3.25,0,0,1-.59.2,2.53,2.53,0,0,1-.72.11,1.54,1.54,0,0,1-1-.22,1.06,1.06,0,0,1-.28-.84A4.41,4.41,0,0,1,15,19a8,8,0,0,1,.19-.85L16.07,15a4.21,4.21,0,0,0,.17-.94c0-.33.05-.57.05-.71a2,2,0,0,0-.69-1.59,2.84,2.84,0,0,0-2-.62,4.59,4.59,0,0,0-1.49.26c-.53.17-1.08.36-1.66.6l-.23,1c.2-.08.41-.14.61-.21a2.52,2.52,0,0,1,.7-.1,1.41,1.41,0,0,1,.94.23,1.11,1.11,0,0,1,.25.83,4.07,4.07,0,0,1-.08.74c0,.26-.12.54-.2.84l-.88,3.12c-.08.33-.13.62-.17.88a6.33,6.33,0,0,0,0,.76,2,2,0,0,0,.71,1.58,2.88,2.88,0,0,0,2,.63A4.28,4.28,0,0,0,15.54,22.08Z" transform="translate(-0.4 -0.33)"/><path class="cls-2" d="M15.59,5.5a2.13,2.13,0,0,0-1.48.57,1.85,1.85,0,0,0-.62,1.39,1.82,1.82,0,0,0,.62,1.38,2.11,2.11,0,0,0,1.48.57,2.08,2.08,0,0,0,1.48-.57h0a1.89,1.89,0,0,0,0-2.78A2.09,2.09,0,0,0,15.59,5.5Z" transform="translate(-0.4 -0.33)"/></svg>