<svg xmlns="http://www.w3.org/2000/svg" xmlns:xlink="http://www.w3.org/1999/xlink" width="40" height="11" viewBox="0 0 40 11">
    <defs>
        <path id="a" d="M27.35 2.914c.062-.392.013-.676-.15-.868-.274-.32-.805-.32-1.366-.32h-.215a.26.26 0 0 0-.257.22l-.329 2.085h.47c.825 0 1.677 0 1.848-1.117zM26.993 0c1.04 0 1.825.275 2.267.795.403.473.536 1.148.397 2.008-.31 1.966-1.492 2.958-3.541 2.958h-.985a.432.432 0 0 0-.427.365l-.357 2.261a.303.303 0 0 1-.299.256h-1.596a.26.26 0 0 1-.256-.3L23.453.365A.432.432 0 0 1 23.88 0h3.112zM5.159 2.914c.062-.392.012-.676-.151-.868-.274-.32-.804-.32-1.366-.32h-.215a.26.26 0 0 0-.256.22L2.84 4.03h.47c.825 0 1.678 0 1.848-1.117zM4.799 0c1.042 0 1.826.275 2.268.795.403.473.537 1.148.397 2.008-.309 1.966-1.491 2.958-3.541 2.958h-.984a.432.432 0 0 0-.428.365l-.339 2.152a.432.432 0 0 1-.427.365H.259a.26.26 0 0 1-.256-.3L1.261.365A.432.432 0 0 1 1.688 0H4.8zm7.224 5.778c.065-.412-.024-.786-.252-1.054-.227-.265-.57-.405-.994-.405-.849 0-1.535.59-1.67 1.433-.07.414.014.786.234 1.047.223.263.568.402 1 .402.862 0 1.538-.572 1.682-1.423zm2.076-2.9a.26.26 0 0 1 .257.3l-.806 5.1a.432.432 0 0 1-.427.365h-1.341a.26.26 0 0 1-.257-.3l.067-.414s-.736.852-2.063.852c-.773 0-1.421-.223-1.876-.757-.495-.583-.697-1.417-.555-2.29.274-1.749 1.68-2.996 3.326-2.996.718 0 1.437.156 1.76.625l.104.15.065-.416a.26.26 0 0 1 .257-.219h1.49zm20.116 2.9c.065-.412-.025-.786-.253-1.054-.227-.265-.57-.405-.993-.405-.849 0-1.536.59-1.67 1.433-.07.414.013.786.234 1.047.222.263.568.402 1 .402.862 0 1.538-.572 1.682-1.423zm2.076-2.9a.26.26 0 0 1 .256.3l-.805 5.1a.432.432 0 0 1-.427.365h-1.342a.26.26 0 0 1-.256-.3l.067-.414s-.736.852-2.063.852c-.773 0-1.422-.223-1.876-.757-.495-.583-.698-1.417-.555-2.29.274-1.749 1.68-2.996 3.326-2.996.718 0 1.437.156 1.76.625l.104.15.065-.416a.26.26 0 0 1 .256-.219h1.49zm-14.256 0a.26.26 0 0 1 .213.407l-4.98 7.188a.432.432 0 0 1-.356.186h-1.496a.26.26 0 0 1-.211-.41l1.55-2.188-1.648-4.84a.26.26 0 0 1 .245-.343h1.472c.191 0 .36.126.414.308l.876 2.924 2.065-3.042a.432.432 0 0 1 .358-.19h1.498zM38.047.22A.26.26 0 0 1 38.303 0h1.438a.26.26 0 0 1 .256.3l-1.26 7.978a.432.432 0 0 1-.426.365h-1.285a.26.26 0 0 1-.256-.3L38.047.22z"/>
    </defs>
    <use fill="#238EC2" fill-rule="evenodd" xlink:href="#a"/>
</svg>
