<?xml version="1.0" encoding="UTF-8"?>
<svg width="16px" height="16px" viewBox="0 0 32 32" version="1.1" xmlns="http://www.w3.org/2000/svg" xmlns:xlink="http://www.w3.org/1999/xlink">
    <!-- Generator: Sketch 55.1 (78136) - https://sketchapp.com -->
    <title>Close</title>
    <desc>Created with Sketch.</desc>
    <g id="Website---Privacy-Policy" stroke="none" stroke-width="1" fill="none" fill-rule="evenodd">
        <g id="3-Cookie-Policy" transform="translate(-1044.000000, -251.000000)" fill="#868686">
            <path d="M1060,264.878108 L1073.43894,251.439172 C1074.02472,250.853386 1074.97447,250.853386 1075.56026,251.439172 L1075.56083,251.439744 C1076.14661,252.025531 1076.14661,252.975278 1075.56083,253.561064 L1062.12189,267 L1075.56083,280.438936 C1076.14661,281.024722 1076.14661,281.974469 1075.56083,282.560256 L1075.56026,282.560828 C1074.97447,283.146614 1074.02472,283.146614 1073.43894,282.560828 L1060,269.121892 L1046.56106,282.560828 C1045.97528,283.146614 1045.02553,283.146614 1044.43974,282.560828 L1044.43917,282.560256 C1043.85339,281.974469 1043.85339,281.024722 1044.43917,280.438936 L1057.87811,267 L1044.43905,253.560946 C1043.85327,252.97516 1043.85327,252.025412 1044.43905,251.439626 L1044.43963,251.439054 C1045.02541,250.853268 1045.97516,250.853268 1046.56095,251.439054 L1060,264.878108 Z" id="Close"></path>
        </g>
    </g>
</svg>