<svg xmlns="http://www.w3.org/2000/svg" width="40" height="14" viewBox="0 0 40 14">
    <path fill="#FFF" fill-rule="evenodd" d="M28.732 3.282A1.641 1.641 0 1 0 28.733 0a1.641 1.641 0 0 0 0 3.282zm-12.574.886c-.074.187-.607 1.693-1.897 3.254V.747l-3.436.68v12.098h3.436v-3.74c.995 1.493 1.487 3.74 1.487 3.74h4.115c-.407-1.693-2.188-4.813-2.188-4.813a15.078 15.078 0 0 0 2.412-4.544h-3.93zm9.033-.126c-3.078.099-4.64 1.48-4.64 4.224v5.259h3.358V9.237c0-1.644.215-2.348 2.165-2.416v-2.73c-.328-.07-.883-.049-.883-.049zM5.062 5.501c-.42-.028-1.395-.091-1.395-.968 0-1.059 1.403-1.059 1.93-1.059.924 0 2.122.274 2.978.53 0 0 .477.168.884.34l.037.01V1.457l-.051-.016C8.435 1.087 7.26.747 5.084.747 1.33.747 0 2.934 0 4.807c0 1.08.463 3.621 4.762 3.914.364.023 1.331.078 1.331.985 0 .748-.792 1.19-2.123 1.19a10.45 10.45 0 0 1-3.735-.725v2.985c1.287.338 2.738.506 4.439.506 3.67 0 5.314-2.069 5.314-4.119 0-2.325-1.84-3.836-4.926-4.042zm22.006 8.024h3.33V4.179h-3.33v9.346zm9.601-12.182v12.182H40V.747l-3.33.596zm-4.86 0l3.328-.596v12.778h-3.328V1.343z"/>
</svg>
