<?xml version="1.0" encoding="UTF-8"?>
<svg width="34px" height="26px" viewBox="0 0 34 26" version="1.1" xmlns="http://www.w3.org/2000/svg" xmlns:xlink="http://www.w3.org/1999/xlink">
    <!-- Generator: Sketch 55.1 (78136) - https://sketchapp.com -->
    <title>Games</title>
    <desc>Created with Sketch.</desc>
    <g id="Website-Main-Not-Logged-In" stroke="none" stroke-width="1" fill="none" fill-rule="evenodd">
        <g id="Website-Games-Clicked" transform="translate(-588.000000, -95.000000)" fill="#FFFFFF" fill-rule="nonzero">
            <g id="navigation-slots">
                <g id="Icons" transform="translate(100.000000, 94.000000)">
                    <path d="M505.708333,19.4166667 L505.708333,8.08333333 L498.625,8.08333333 L498.625,19.4166667 L505.708333,19.4166667 Z M507.125,19.4166667 L514.916667,19.4166667 L514.916667,8.08333333 L507.125,8.08333333 L507.125,19.4166667 Z M497.208333,19.4166667 L497.208333,8.08333333 L489.416667,8.08333333 L489.416667,19.4166667 L497.208333,19.4166667 Z M489.416667,6.66666667 L514.916667,6.66666667 L514.916667,4.54166667 C514.916667,3.65044352 509.057505,2.41666667 502.166667,2.41666667 C495.275829,2.41666667 489.416667,3.65044352 489.416667,4.54166667 L489.416667,6.66666667 Z M516.333333,22.25 L519.166667,22.25 L519.166667,20.8333333 L516.333333,20.8333333 L516.333333,22.25 Z M516.333333,23.6666667 C516.333333,25.2312848 515.065202,26.5 513.5,26.5 L490.833333,26.5 C489.268131,26.5 488,25.2312848 488,23.6666667 L488,4.54166667 C488,2.30427176 494.19394,1 502.166667,1 C510.139394,1 516.333333,2.30427176 516.333333,4.54166667 L516.333333,19.4166667 L519.166667,19.4166667 L519.166667,12.2124807 C518.341332,11.9209049 517.75,11.1340678 517.75,10.2083333 C517.75,9.03409456 518.701418,8.08333333 519.875,8.08333333 C521.048582,8.08333333 522,9.03409456 522,10.2083333 C522,11.1340678 521.408668,11.9209049 520.583333,12.2124807 L520.583333,22.9583333 C520.583333,23.349535 520.266202,23.6666667 519.875,23.6666667 L516.333333,23.6666667 Z M489.416667,20.8333333 L489.416667,23.6666667 C489.416667,24.4490274 490.050681,25.0833333 490.833333,25.0833333 L513.5,25.0833333 C514.282653,25.0833333 514.916667,24.4490274 514.916667,23.6666667 L514.916667,20.8333333 L489.416667,20.8333333 Z M494.684664,10.9166667 L492.25,10.9166667 L492.25,11.625 C492.25,12.0162017 491.932868,12.3333333 491.541667,12.3333333 C491.150465,12.3333333 490.833333,12.0162017 490.833333,11.625 L490.833333,10.2083333 C490.833333,9.81713164 491.150465,9.5 491.541667,9.5 L495.791667,9.5 C496.318229,9.5 496.660705,10.054138 496.425219,10.5251096 C496.362928,10.6496915 496.250824,10.8845761 496.10558,11.2073416 C495.862435,11.7476635 495.619142,12.3315666 495.3924,12.9362124 C495.102395,13.7095588 494.861386,14.4593654 494.685882,15.1613794 C494.483001,15.9729057 494.375,16.6929098 494.375,17.2916667 C494.375,17.6828684 494.057868,18 493.666667,18 C493.275465,18 492.958333,17.6828684 492.958333,17.2916667 C492.958333,16.5622986 493.082755,15.7328234 493.311514,14.8177873 C493.501245,14.0588638 493.758282,13.2591912 494.065933,12.4387876 C494.263832,11.9110585 494.473234,11.3995829 494.684664,10.9166667 Z M503.184664,10.9166667 L500.75,10.9166667 L500.75,11.625 C500.75,12.0162017 500.432868,12.3333333 500.041667,12.3333333 C499.650465,12.3333333 499.333333,12.0162017 499.333333,11.625 L499.333333,10.2083333 C499.333333,9.81713164 499.650465,9.5 500.041667,9.5 L504.291667,9.5 C504.818229,9.5 505.160705,10.054138 504.925219,10.5251096 C504.862928,10.6496915 504.750824,10.8845761 504.60558,11.2073416 C504.362435,11.7476635 504.119142,12.3315666 503.8924,12.9362124 C503.602395,13.7095588 503.361386,14.4593654 503.185882,15.1613794 C502.983001,15.9729057 502.875,16.6929098 502.875,17.2916667 C502.875,17.6828684 502.557868,18 502.166667,18 C501.775465,18 501.458333,17.6828684 501.458333,17.2916667 C501.458333,16.5622986 501.582755,15.7328234 501.811514,14.8177873 C502.001245,14.0588638 502.258282,13.2591912 502.565933,12.4387876 C502.763832,11.9110585 502.973234,11.3995829 503.184664,10.9166667 Z M511.684664,10.9166667 L509.25,10.9166667 L509.25,11.625 C509.25,12.0162017 508.932868,12.3333333 508.541667,12.3333333 C508.150465,12.3333333 507.833333,12.0162017 507.833333,11.625 L507.833333,10.2083333 C507.833333,9.81713164 508.150465,9.5 508.541667,9.5 L512.791667,9.5 C513.318229,9.5 513.660705,10.054138 513.425219,10.5251096 C513.362928,10.6496915 513.250824,10.8845761 513.10558,11.2073416 C512.862435,11.7476635 512.619142,12.3315666 512.3924,12.9362124 C512.102395,13.7095588 511.861386,14.4593654 511.685882,15.1613794 C511.483001,15.9729057 511.375,16.6929098 511.375,17.2916667 C511.375,17.6828684 511.057868,18 510.666667,18 C510.275465,18 509.958333,17.6828684 509.958333,17.2916667 C509.958333,16.5622986 510.082755,15.7328234 510.311514,14.8177873 C510.501245,14.0588638 510.758282,13.2591912 511.065933,12.4387876 C511.263832,11.9110585 511.473234,11.3995829 511.684664,10.9166667 Z" id="Games"></path>
                </g>
            </g>
        </g>
    </g>
</svg>