<svg xmlns="http://www.w3.org/2000/svg" width="52" height="42" viewBox="0 0 52 42">
    <defs>
        <filter id="a" width="106.7%" height="133.6%" x="-2.6%" y="-13.3%" filterUnits="objectBoundingBox">
            <feOffset in="SourceAlpha" result="shadowOffsetOuter1"/>
            <feGaussianBlur in="shadowOffsetOuter1" result="shadowBlurOuter1" stdDeviation="3"/>
            <feColorMatrix in="shadowBlurOuter1" result="shadowMatrixOuter1" values="0 0 0 0 0.688405797 0 0 0 0 0.688405797 0 0 0 0 0.688405797 0 0 0 0.0945148601 0"/>
            <feMerge>
                <feMergeNode in="shadowMatrixOuter1"/>
                <feMergeNode in="SourceGraphic"/>
            </feMerge>
        </filter>
    </defs>
    <path fill="#000" fill-opacity=".85" fill-rule="nonzero" d="M41.833 21.667V8.542h-8.125v13.125h8.125zm1.875 0h8.959V8.542h-8.959v13.125zm-11.875 0V8.542h-9.166v13.125h9.166zm-9.166-15h30v-2.5c0-1.049-6.893-2.5-15-2.5s-15 1.451-15 2.5v2.5zM54.333 25h3.334v-1.458h-3.334V25zm0 1.667A3.333 3.333 0 0 1 51 30H24.333A3.333 3.333 0 0 1 21 26.667v-22.5C21 1.534 28.287 0 37.667 0c9.38 0 16.666 1.534 16.666 4.167v17.5h3.334V13.19a2.5 2.5 0 1 1 1.666 0v12.642c0 .46-.373.834-.833.834h-4.167zm-31.666-3.125v3.125c0 .92.746 1.666 1.666 1.666H51c.92 0 1.667-.746 1.667-1.666v-3.125h-30zm6.197-11.875H26v.833a.833.833 0 1 1-1.667 0v-1.667c0-.46.373-.833.834-.833h5c.62 0 1.022.652.745 1.206a34.549 34.549 0 0 0-1.215 2.837c-.341.91-.625 1.792-.831 2.617-.239.955-.366 1.802-.366 2.507a.833.833 0 1 1-1.667 0c0-.858.147-1.834.416-2.91.223-.894.525-1.834.887-2.8.233-.62.48-1.222.728-1.79zm10 0H36v.833a.833.833 0 1 1-1.667 0v-1.667c0-.46.373-.833.834-.833h5c.62 0 1.022.652.745 1.206a34.549 34.549 0 0 0-1.215 2.837c-.341.91-.625 1.792-.831 2.617-.239.955-.366 1.802-.366 2.507a.833.833 0 1 1-1.667 0c0-.858.147-1.834.416-2.91.223-.894.525-1.834.887-2.8.233-.62.48-1.222.728-1.79zm10 0H46v.833a.833.833 0 1 1-1.667 0v-1.667c0-.46.373-.833.834-.833h5c.62 0 1.022.652.745 1.206a34.549 34.549 0 0 0-1.215 2.837c-.341.91-.625 1.792-.831 2.617-.239.955-.366 1.802-.366 2.507a.833.833 0 1 1-1.667 0c0-.858.147-1.834.416-2.91.223-.894.525-1.834.887-2.8.233-.62.48-1.222.728-1.79z" filter="url(#a)" transform="translate(-15 6)"/>
</svg>
