<svg xmlns="http://www.w3.org/2000/svg" width="46" height="45" viewBox="0 0 46 45">
    <defs>
        <filter id="a" width="106.7%" height="133.6%" x="-2.6%" y="-13.3%" filterUnits="objectBoundingBox">
            <feOffset in="SourceAlpha" result="shadowOffsetOuter1"/>
            <feGaussianBlur in="shadowOffsetOuter1" result="shadowBlurOuter1" stdDeviation="3"/>
            <feColorMatrix in="shadowBlurOuter1" result="shadowMatrixOuter1" values="0 0 0 0 0.688405797 0 0 0 0 0.688405797 0 0 0 0 0.688405797 0 0 0 0.0945148601 0"/>
            <feMerge>
                <feMergeNode in="shadowMatrixOuter1"/>
                <feMergeNode in="SourceGraphic"/>
            </feMerge>
        </filter>
    </defs>
    <path fill="#000" fill-opacity=".85" fill-rule="nonzero" d="M43.657 28.66c.007.05.01.1.01.151v1.483a14.583 14.583 0 0 0 6.524-4.481l-1.922-.504a.972.972 0 0 1-.108.09l-4.504 3.26zm-2.052.718l-4.484-2.473-5.937.789v1.091A14.49 14.49 0 0 0 39 31.059c.89 0 1.76-.08 2.605-.233v-1.448zm.342 3.36C40.99 32.91 40.006 33 39 33c-2.923 0-5.668-.76-8.049-2.093a.913.913 0 0 1-.715.356c-.523 0-.947-.465-.947-1.038v-.384a16.528 16.528 0 0 1-6.13-8.708c-.473-.166-.753-.708-.63-1.243.041-.179.122-.335.23-.46-.17-.95-.259-1.93-.259-2.93 0-7.36 4.82-13.596 11.476-15.721.179-.529.783-.864 1.41-.76.229.038.431.13.593.257C36.96.095 37.97 0 39 0c8.013 0 14.692 5.713 16.187 13.287.16.142.27.336.303.56a.915.915 0 0 1-.117.598c.084.673.127 1.359.127 2.055 0 7.517-5.027 13.86-11.903 15.851-.15.38-.524.649-.96.649-.266 0-.508-.1-.69-.262zm5.776-10.156a.587.587 0 0 1 .087.016l3.513.921c.12.032.23.1.325.195a14.492 14.492 0 0 0 1.91-7.214c0-.481-.023-.957-.068-1.426l-3.515.488-3.138 4.848a.93.93 0 0 1-.048.068l.934 2.104zm-2.288-3.472l2.862-4.421-2.906-5.09-5.733.746-1.506 4.263 3.284 4.765c.045.065.081.134.108.206l3.87-.466.021-.003zm-8.306 5.207l2.09-4.034a.962.962 0 0 1 .443-.424l-2.337-3.39a1.068 1.068 0 0 1-.55.214l-7.205.68a1.094 1.094 0 0 1-.34-.02l-1.256 3.618 2.424 4.247 6.667-.886a.745.745 0 0 1 .064-.005zm-8.78-8.645l-.521-4.925h-2.206a14.51 14.51 0 0 0-1.18 5.753c0 1.003.1 1.982.294 2.928l1.784.493 1.282-3.693a.879.879 0 0 1 .548-.556zm-1.698 6.888a.808.808 0 0 1-.126-.04.893.893 0 0 1-.516-.599l-.59-.162a14.587 14.587 0 0 0 3.87 5.588v-.165L26.65 22.56zm1.675-13.876l4.602-2.715a.97.97 0 0 1 .014-.316l.555-2.636a14.613 14.613 0 0 0-6.782 5.667h1.61zm7.129-3.025L38.52 8.07a.75.75 0 0 1 .429-.222l6.885-.896a.638.638 0 0 1 .086-.006l1.275-2.481A14.491 14.491 0 0 0 39 1.94c-.965 0-1.908.094-2.82.273l-.725 3.445zm13.28.015l-1.599 3.111 2.79 4.885 3.261-.453a14.549 14.549 0 0 0-4.453-7.543zm-3.81 15.4l-4.191.505-2.073 4.001 3.4 1.876 4.312-3.122-1.447-3.26zm-14.53-5.754l5.506-.52 1.726-4.887-3.204-2.52-4.582 2.703.553 5.224z" filter="url(#a)" transform="translate(-16 6)"/>
</svg>
