<svg xmlns="http://www.w3.org/2000/svg" width="28" height="28" viewBox="0 0 28 28">
    <path fill="#FFF" fill-rule="nonzero" d="M17.688 24.724v1.069a12.365 12.365 0 0 0 5.685-3.746l-1.716-.3-3.969 2.977zm-1.647.066l-3.367-1.924-4.725.473v1.433A12.296 12.296 0 0 0 14 26.352c.695 0 1.377-.056 2.04-.167V24.79zm.97 2.885A14.05 14.05 0 0 1 14 28C6.268 28 0 21.732 0 14a13.937 13.937 0 0 1 1.71-6.71A14.031 14.031 0 0 1 10.47.45 14.023 14.023 0 0 1 14 0c7.732 0 14 6.268 14 14a13.935 13.935 0 0 1-2.476 7.952 14.013 14.013 0 0 1-8.512 5.723zm5.018-7.535l2.437.425A12.295 12.295 0 0 0 26.353 14c0-.478-.027-.949-.08-1.412l-3.184.454-2.434 3.894 1.374 3.204zm-2.79-4.044l2.399-3.84-2.368-4.262-5.232.476-1.412 4.235 2.892 3.856 3.72-.465zm-6.918 5.15l1.86-3.722-2.853-3.804-4.757.476-1.396 3.723 2.378 3.804 4.768-.477zm-7.18-7.928l-.48-4.796H2.925A12.302 12.302 0 0 0 1.647 14c0 .881.092 1.741.268 2.57l1.833.462 1.393-3.714zm.03-6.443l4.076-2.548.348-1.872a12.391 12.391 0 0 0-5.687 4.42H5.17zm5.717-2.365l2.804 2.337 5.506-.5 1.396-2.794A12.295 12.295 0 0 0 14 1.647c-.903 0-1.783.097-2.63.28l-.482 2.583zM2.456 18.405a12.385 12.385 0 0 0 3.846 5.256v-.832l-2.564-4.1-1.282-.324zM21.943 4.54L20.66 7.105l2.378 4.28 2.94-.419a12.355 12.355 0 0 0-4.035-6.427zm-2.727 13.22l-3.53.44-1.747 3.493 2.864 1.637 3.633-2.725-1.22-2.846zM6.717 12.525l4.379-.438 1.372-4.117-2.547-2.123-3.644 2.277.44 4.4z"/>
</svg>
