<svg xmlns="http://www.w3.org/2000/svg" width="360" height="43" viewBox="0 0 360 43">
    <g fill="none" fill-rule="evenodd">
        <path fill="#FFF" d="M0 42.805h360.46V0H0z"/>
        <text fill="#212121" font-family="Gilroy-Light, Gilroy" font-size="15.757" font-weight="300" letter-spacing=".563">
            <tspan x="46" y="30">Edit Profile</tspan>
        </text>
        <path fill="#F00" fill-rule="nonzero" d="M28.922 15.227a1.304 1.304 0 0 0-1.844-1.845l-8.696 8.696c-.51.51-.51 1.335 0 1.844l8.696 8.696a1.304 1.304 0 0 0 1.844-1.845L21.15 23l7.773-7.773z"/>
        <path fill="#212121" d="M299.632 6h40.736A5.632 5.632 0 0 1 346 11.632v20.736A5.632 5.632 0 0 1 340.368 38h-40.736A5.632 5.632 0 0 1 294 32.368V11.632A5.632 5.632 0 0 1 299.632 6z"/>
        <text fill="#FFF" font-family="Gilroy-Medium, Gilroy" font-size="13.517" font-weight="400" transform="translate(294 6)">
            <tspan x="10" y="20">Save</tspan>
        </text>
    </g>
</svg>
