<svg id="图层_1" 
data-name="图层 1" xmlns="http://www.w3.org/2000/svg" 
viewBox="0 0 21.5 19">
<defs><style>.cls-1{fill:#212121;}</style>
</defs><title>-3</title>
    <path class="cls-1" d="M11.5,12.4A4.7,4.7,0,1,0,6.8,7.7,4.71,4.71,0,0,0,11.5,12.4Zm0-8.4A3.7,3.7,0,1,1,7.8,7.7,3.7,3.7,0,0,1,11.5,4Z" transform="translate(-2 -3)"/>
    <path class="cls-1" d="M19.21,21H3.78a.75.75,0,0,1-.53-.23A.87.87,0,0,1,3,20.15v-.66a3.14,3.14,0,0,1,1.61-2.77A15,15,0,0,1,11.5,14.8a12.86,12.86,0,0,1,3.86.63l.54.2a1.25,1.25,0,0,1,.73-.26H17.9a18.3,18.3,0,0,0-2.24-.89,13.91,13.91,0,0,0-4.16-.68,16,16,0,0,0-7.36,2A4.12,4.12,0,0,0,2,19.49v.66a1.83,1.83,0,0,0,.55,1.33A1.7,1.7,0,0,0,3.78,22H19.21a1.8,1.8,0,0,0,1.65-1.13,1.26,1.26,0,0,1-.91.4A1.22,1.22,0,0,1,19.21,21Z" transform="translate(-2 -3)"/>
    <path class="cls-1" d="M23,15.9H20.6V13.5a.5.5,0,0,0-.5-.5h-.45a.5.5,0,0,0-.5.5v2.4h-2.4a.5.5,0,0,0-.5.5v.45a.5.5,0,0,0,.5.5h2.4v2.4a.51.51,0,0,0,.5.5h.45a.5.5,0,0,0,.5-.5v-2.4H23a.5.5,0,0,0,.5-.5V16.4A.5.5,0,0,0,23,15.9Z" transform="translate(-2 -3)"/>
</svg>