<?xml version="1.0" encoding="UTF-8"?>
<svg width="26px" height="27px" viewBox="0 0 26 27" version="1.1" xmlns="http://www.w3.org/2000/svg" xmlns:xlink="http://www.w3.org/1999/xlink">
    <!-- Generator: Sketch 55.2 (78181) - https://sketchapp.com -->
    <title>User</title>
    <desc>Created with Sketch.</desc>
    <g id="Nav" stroke="none" stroke-width="1" fill="none" fill-rule="evenodd" stroke-linecap="round" stroke-linejoin="round">
        <g id="navigation" transform="translate(-1304.000000, -21.000000)" stroke="#212121" stroke-width="1.5625">
            <g id="Login-Elements">
                <g transform="translate(1280.000000, 13.000000)">
                    <g id="Open-Account">
                        <path d="M43,14.6367187 C43,17.5362187 40.6495,19.8867188 37.75,19.8867188 C34.8505,19.8867188 32.5,17.5362187 32.5,14.6367187 C32.5,11.7372188 34.8505,9.38671875 37.75,9.38671875 C40.6495,9.38671875 43,11.7372188 43,14.6367187 Z M37,24.3867187 C40.8128,24.3867187 44.2816,25.7412188 46.4976,26.8602187 C48.032,27.6372188 49,29.1792188 49,30.8757188 L49,31.6992187 C49,32.6307187 48.2336,33.3867187 47.2864,33.3867187 L26.7136,33.3867187 C25.7664,33.3867187 25,32.6307187 25,31.6992187 L25,30.8757188 C25,29.1792188 25.968,27.6372188 27.5024,26.8602187 C29.7184,25.7412188 33.1872,24.3867187 37,24.3867187 Z" id="User"></path>
                    </g>
                </g>
            </g>
        </g>
    </g>
</svg>