<svg xmlns="http://www.w3.org/2000/svg" width="40" height="13" viewBox="0 0 40 13">
    <path fill="#238EC2" fill-rule="evenodd" d="M3.556 1.994c-.97-.538-2.078-.97-3.316-1.27L.28.482h5.09c.686.025 1.24.244 1.432.977l1.106 5.322C7.161 4.87 5.69 3.176 3.556 1.994l-.02-.07c2.005 1.004 3.797 3.008 4.372 4.858l.33 1.606L11.328.49h3.344l-4.97 11.559-3.34.004-2.806-10.06zm10.42 10.069L15.95.48h3.157L17.13 12.063h-3.155zM28.581.766l-.428 2.51-.283-.133a5.822 5.822 0 0 0-2.363-.444c-1.236 0-1.807.515-1.807.996-.008.543.668.9 1.772 1.436 1.82.827 2.662 1.83 2.65 3.147-.025 2.404-2.179 3.956-5.497 3.956-1.416-.014-2.78-.294-3.517-.617l.443-2.593.407.184c1.037.433 1.708.608 2.972.608.907 0 1.88-.355 1.888-1.131.006-.507-.407-.869-1.636-1.436-1.197-.554-2.783-1.483-2.766-3.147C20.435 1.85 22.632.28 25.751.28c1.224 0 2.204.252 2.83.486zm8.095-.274l2.555 11.575H36.3s-.29-1.33-.384-1.736l-4.042-.005c-.123.313-.665 1.74-.665 1.74h-3.315l4.688-10.613c.332-.755.898-.96 1.653-.96h2.44zm-3.893 7.465h2.62l-.73-3.344-.214-.999c-.159.435-.437 1.136-.418 1.106 0 0-.997 2.57-1.258 3.237z"/>
</svg>
