<svg xmlns="http://www.w3.org/2000/svg" width="32" height="10" viewBox="0 0 32 10">
    <path fill="#FFF" fill-rule="evenodd" d="M2.721 1.406A10.872 10.872 0 0 0 0 .364L.033.166h4.178c.562.021 1.017.2 1.174.803l.909 4.368c-.614-1.57-1.822-2.96-3.573-3.93l-.016-.058c1.645.824 3.116 2.469 3.589 3.988l.27 1.317L9.1.172h2.745L7.765 9.66l-2.74.003L2.72 1.406zm8.552 8.264l1.62-9.505h2.591L13.863 9.67h-2.59zM23.26.4l-.35 2.06-.233-.11a4.778 4.778 0 0 0-1.939-.365c-1.014 0-1.484.423-1.484.818-.005.445.55.739 1.455 1.178 1.494.679 2.185 1.502 2.175 2.583-.02 1.973-1.788 3.247-4.512 3.247-1.161-.012-2.28-.242-2.886-.507l.364-2.128.334.151c.85.355 1.402.5 2.439.5.744 0 1.543-.292 1.55-.929.005-.416-.335-.713-1.343-1.179-.983-.455-2.285-1.217-2.27-2.582C16.574 1.289 18.378 0 20.937 0a6.69 6.69 0 0 1 2.322.4zm6.644-.226L32 9.674h-2.404s-.238-1.092-.315-1.425l-3.318-.004c-.1.257-.546 1.428-.546 1.428h-2.72l3.847-8.71c.273-.62.737-.789 1.357-.789h2.002zm-3.195 6.127h2.151l-.6-2.745-.175-.82c-.13.357-.359.933-.343.908 0 0-.818 2.109-1.033 2.657z"/>
</svg>
