<svg xmlns="http://www.w3.org/2000/svg" width="45" height="49" viewBox="0 0 45 49">
    <defs>
        <filter id="a" width="105.5%" height="140.6%" x="-2.8%" y="-20.3%" filterUnits="objectBoundingBox">
            <feOffset in="SourceAlpha" result="shadowOffsetOuter1"/>
            <feGaussianBlur in="shadowOffsetOuter1" result="shadowBlurOuter1" stdDeviation="3"/>
            <feColorMatrix in="shadowBlurOuter1" result="shadowMatrixOuter1" values="0 0 0 0 0.688405797 0 0 0 0 0.688405797 0 0 0 0 0.688405797 0 0 0 0.0945148601 0"/>
            <feMerge>
                <feMergeNode in="shadowMatrixOuter1"/>
                <feMergeNode in="SourceGraphic"/>
            </feMerge>
        </filter>
    </defs>
    <path fill="none" fill-rule="evenodd" stroke="#212121" d="M100.214 13.305L89.656 2.745a.771.771 0 0 0-.575-.245.77.77 0 0 0-.574.246.77.77 0 0 0-.246.574V9.1h-5.12c-9.622 0-15.446 2.683-17.582 7.996-.703 1.778-1.058 4.007-1.058 6.684 0 2.199.856 5.238 2.58 9.107a44.556 44.556 0 0 0 .488 1.099c.067.145.138.264.223.375.078.11.126.139.169.139.065 0 .086-.01.104-.03.037-.043.056-.1.056-.191 0-.095-.015-.256-.046-.476a4.367 4.367 0 0 1-.056-.52 35.31 35.31 0 0 1-.105-2.573c0-1.422.124-2.702.373-3.84.25-1.142.598-2.136 1.047-2.983a7.68 7.68 0 0 1 1.764-2.227 10.176 10.176 0 0 1 2.288-1.506c.817-.39 1.77-.695 2.86-.916a26.577 26.577 0 0 1 3.236-.452 47.718 47.718 0 0 1 3.659-.125h5.12v5.78a.77.77 0 0 0 .245.574.771.771 0 0 0 .575.246.772.772 0 0 0 .575-.246l10.56-10.56a.77.77 0 0 0 .245-.574.774.774 0 0 0-.246-.576z" filter="url(#a)" transform="matrix(0 -1 -1 0 40.98 106.98)"/>
</svg>
