<svg xmlns="http://www.w3.org/2000/svg" width="48" height="36" viewBox="0 0 48 36">
    <g fill="#F00" fill-rule="nonzero">
        <path d="M31.589 20.421l-4.013 4.066c-1.627 1.648-4.49 1.684-6.152 0l-4.013-4.066L3 35.021c.536.25 1.128.4 1.757.4h39.487c.628 0 1.22-.15 1.756-.4l-14.411-14.6z"/>
        <path d="M44.244.421H4.757c-.63 0-1.22.153-1.757.41l15.4 15.977c0 .002.002.002.003.003a.005.005 0 0 1 .001.002l5.007 5.196c.532.55 1.646.55 2.178 0l5.006-5.195.002-.003.004-.003L46 .831a4.052 4.052 0 0 0-1.756-.41zM.451 3.421A4.141 4.141 0 0 0 0 5.275v25.292c0 .668.171 1.292.451 1.854L15 17.921.451 3.422zM47.549 3.421L33 17.921l14.549 14.5c.28-.562.451-1.186.451-1.854V5.275c0-.668-.172-1.292-.451-1.854z"/>
    </g>
</svg>
