<svg xmlns="http://www.w3.org/2000/svg" width="64" height="64" viewBox="0 0 64 64">
    <path fill="#8F8F8F" fill-rule="nonzero" d="M30.667 40H28a1.333 1.333 0 1 1 0-2.667h4.667a2.001 2.001 0 0 0 0-4h-1.334a4.668 4.668 0 0 1-.666-9.286v-1.38a1.333 1.333 0 1 1 2.666 0V24H36a1.333 1.333 0 1 1 0 2.667h-4.667a2.001 2.001 0 0 0 0 4h1.334a4.668 4.668 0 0 1 .666 9.286v1.38a1.333 1.333 0 1 1-2.666 0V40zm30.335-12.426l-2.885 1.663a5.335 5.335 0 0 1-7.285-1.952l-5.333-9.237a5.335 5.335 0 0 1 1.952-7.285l2.882-1.664a29.299 29.299 0 0 0-7.666-4.433V8a5.335 5.335 0 0 1-5.334 5.333H26.667A5.335 5.335 0 0 1 21.333 8V4.666a29.299 29.299 0 0 0-7.666 4.433l2.882 1.664a5.335 5.335 0 0 1 1.952 7.285l-5.333 9.237a5.335 5.335 0 0 1-7.285 1.953l-2.885-1.664A29.574 29.574 0 0 0 2.667 32c0 1.505.113 2.983.331 4.426l2.885-1.663a5.335 5.335 0 0 1 7.285 1.952l5.333 9.237a5.335 5.335 0 0 1-1.952 7.285l-2.882 1.664a29.299 29.299 0 0 0 7.666 4.433V56a5.335 5.335 0 0 1 5.334-5.333h10.666A5.335 5.335 0 0 1 42.667 56v3.334a29.299 29.299 0 0 0 7.666-4.433l-2.882-1.664a5.335 5.335 0 0 1-1.952-7.285l5.333-9.237a5.335 5.335 0 0 1 7.285-1.953l2.885 1.664c.218-1.443.331-2.921.331-4.426 0-1.505-.113-2.983-.331-4.426zM31.364 61.327a29.917 29.917 0 0 0 1.272 0A29.157 29.157 0 0 0 40 60.219V56a2.668 2.668 0 0 0-2.667-2.667H26.667A2.668 2.668 0 0 0 24 56v4.219a29.153 29.153 0 0 0 7.364 1.107zm1.146 2.669a32.187 32.187 0 0 1-1.02 0C14.05 63.724 0 49.505 0 32 0 14.325 14.325 0 32 0s32 14.325 32 32c0 17.505-14.05 31.724-31.49 31.996zM40 8V3.781a29.169 29.169 0 0 0-8-1.114c-2.73 0-5.413.378-8 1.114V8a2.668 2.668 0 0 0 2.667 2.667h10.666A2.668 2.668 0 0 0 40 8zm-24.784 5.072l-3.655-2.11a29.153 29.153 0 0 0-4.963 6.37 29.344 29.344 0 0 0-3.036 7.488l3.654 2.108a2.668 2.668 0 0 0 3.643-.976l5.333-9.237a2.668 2.668 0 0 0-.976-3.643zm33.568 37.856l3.655 2.11a29.153 29.153 0 0 0 4.963-6.37 29.344 29.344 0 0 0 3.036-7.488l-3.654-2.108a2.668 2.668 0 0 0-3.643.976l-5.333 9.237a2.668 2.668 0 0 0 .976 3.643zM7.216 37.072L3.562 39.18a29.344 29.344 0 0 0 3.036 7.487 29.153 29.153 0 0 0 4.963 6.371l3.655-2.11a2.668 2.668 0 0 0 .976-3.643l-5.333-9.237a2.668 2.668 0 0 0-3.643-.976zm49.568-10.144l3.654-2.108a29.344 29.344 0 0 0-3.036-7.487 29.153 29.153 0 0 0-4.963-6.371l-3.655 2.11a2.668 2.668 0 0 0-.976 3.643l5.333 9.237a2.668 2.668 0 0 0 3.643.976zM48 32c0 8.837-7.164 16-16 16-8.838 0-16-7.162-16-16 0-8.838 7.162-16 16-16 8.836 0 16 7.163 16 16zm-2.667 0c0-7.364-5.97-13.333-13.333-13.333-7.365 0-13.333 5.968-13.333 13.333S24.635 45.333 32 45.333c7.363 0 13.333-5.969 13.333-13.333z"/>
</svg>
