<svg xmlns="http://www.w3.org/2000/svg" width="45" height="59" viewBox="0 0 45 59">
    <path fill="#8F8F8F" fill-rule="nonzero" d="M12.722 17.111h-2.444v1.222a1.222 1.222 0 1 1-2.444 0V11a3.668 3.668 0 0 1 7.333 0v7.333a1.222 1.222 0 1 1-2.445 0v-1.222zm0-2.444V11a1.223 1.223 0 0 0-2.444 0v3.667h2.444zm11.572 30.311c.84 2.348 2.504 3.91 4.317 3.91 1.63 0 1.63 2.445 0 2.445H16.39c-1.63 0-1.63-2.444 0-2.444 1.814 0 3.478-1.563 4.317-3.91a7.275 7.275 0 0 1-4.378 1.465h-1.222A7.272 7.272 0 0 1 9.964 34.03l11.672-11.672a1.222 1.222 0 0 1 1.728 0L35.037 34.03a7.272 7.272 0 0 1-5.142 12.414h-1.223a7.275 7.275 0 0 1-4.378-1.466zm-.93-4.287l1.895 1.895A4.83 4.83 0 0 0 28.672 44h1.223a4.827 4.827 0 0 0 3.413-8.241L22.5 24.95 11.692 35.759A4.827 4.827 0 0 0 15.106 44h1.222a4.83 4.83 0 0 0 3.414-1.414l1.894-1.895a1.218 1.218 0 0 1 1.728 0zm16.26 17.976H5.388A4.89 4.89 0 0 1 .5 53.777V4.89C.5 2.189 2.69 0 5.389 0H39.61A4.887 4.887 0 0 1 44.5 4.889V53.79a4.876 4.876 0 0 1-4.877 4.877zm0-2.445a2.431 2.431 0 0 0 2.432-2.432V4.889a2.443 2.443 0 0 0-2.445-2.445H5.39A2.444 2.444 0 0 0 2.944 4.89v48.889a2.446 2.446 0 0 0 2.445 2.444h34.234zM23.735 48.89A9.486 9.486 0 0 1 22.5 46.99a9.486 9.486 0 0 1-1.236 1.899h2.472z"/>
</svg>
