<svg xmlns="http://www.w3.org/2000/svg" width="65" height="64" viewBox="0 0 65 64">
    <path fill="#8F8F8F" fill-rule="nonzero" d="M37.915 33.333a5.342 5.342 0 0 1-3.832 3.832v3.192a2.666 2.666 0 1 1-2.666 0v-3.192a5.342 5.342 0 0 1-3.832-3.832h-3.192a2.666 2.666 0 1 1 0-2.666h3.192a5.342 5.342 0 0 1 3.832-3.832v-3.192a2.666 2.666 0 1 1 2.666 0v3.192a5.342 5.342 0 0 1 3.832 3.832h3.192a2.666 2.666 0 1 1 0 2.666h-3.192zm.396-16.34a1.353 1.353 0 0 1-.175-.064A15.974 15.974 0 0 0 32.75 16c-1.892 0-3.707.328-5.392.931a1.354 1.354 0 0 1-.162.06 16.053 16.053 0 0 0-8.341 7.071 15.893 15.893 0 0 0-1.85 5.077 1.354 1.354 0 0 1-.028.16 16.108 16.108 0 0 0 .028 5.562 15.893 15.893 0 0 0 1.921 5.201 16.053 16.053 0 0 0 8.27 6.948 1.354 1.354 0 0 1 .162.059c1.685.603 3.5.931 5.392.931 1.89 0 3.703-.328 5.386-.929a1.353 1.353 0 0 1 .175-.064 15.984 15.984 0 0 0 4.726-2.752 16.076 16.076 0 0 0 3.61-4.32A15.893 15.893 0 0 0 48.75 32a16.107 16.107 0 0 0-.254-2.854 15.893 15.893 0 0 0-1.924-5.212 16.076 16.076 0 0 0-3.54-4.194 15.984 15.984 0 0 0-4.721-2.747zm5.717-12.08l-3.656 10.042a18.646 18.646 0 0 1 3.326 1.924l6.868-8.185a29.301 29.301 0 0 0-6.538-3.781zM41.522 4a29.257 29.257 0 0 0-7.439-1.305V13.38c1.303.092 2.568.318 3.783.663l3.656-10.042zm-20.05 55.086l3.656-10.042a18.646 18.646 0 0 1-3.325-1.923l-6.868 8.184a29.301 29.301 0 0 0 6.538 3.781zm2.506.912a29.257 29.257 0 0 0 7.439 1.305V50.62a18.612 18.612 0 0 1-3.783-.663l-3.656 10.042zm28.63-49.59l-6.869 8.185c.92.891 1.75 1.877 2.47 2.941l9.255-5.343a29.479 29.479 0 0 0-4.856-5.783zM12.893 53.591l6.868-8.185a18.761 18.761 0 0 1-2.47-2.941l-9.255 5.343a29.479 29.479 0 0 0 4.857 5.783zM58.799 18.5l-9.254 5.342c.556 1.143.999 2.351 1.314 3.61l10.524-1.855a29.127 29.127 0 0 0-2.584-7.098zM6.701 45.5l9.254-5.343a18.533 18.533 0 0 1-1.314-3.609L4.118 38.403A29.127 29.127 0 0 0 6.7 45.5zm55.142-17.276L51.319 30.08a18.887 18.887 0 0 1 0 3.842l10.524 1.855a29.617 29.617 0 0 0 0-7.552zM3.657 35.776l10.524-1.855a18.887 18.887 0 0 1 0-3.842L3.657 28.224a29.617 29.617 0 0 0 0 7.552zm57.726 2.626l-10.524-1.855a18.533 18.533 0 0 1-1.314 3.61L58.8 45.5a29.127 29.127 0 0 0 2.584-7.098zM4.118 25.597l10.523 1.855a18.533 18.533 0 0 1 1.314-3.609L6.7 18.5a29.127 29.127 0 0 0-2.583 7.097zm53.346 22.211l-9.254-5.343a18.761 18.761 0 0 1-2.47 2.941l6.868 8.185a29.479 29.479 0 0 0 4.856-5.783zM8.036 16.192l9.254 5.343a18.761 18.761 0 0 1 2.47-2.941l-6.867-8.185a29.479 29.479 0 0 0-4.857 5.783zm42.53 39.114l-6.868-8.185a18.646 18.646 0 0 1-3.326 1.924l3.656 10.042a29.301 29.301 0 0 0 6.538-3.781zM14.935 8.694l6.868 8.184a18.646 18.646 0 0 1 3.325-1.923L21.473 4.913a29.301 29.301 0 0 0-6.538 3.781zM41.522 60l-3.656-10.042c-1.215.345-2.48.57-3.783.663v10.684a29.257 29.257 0 0 0 7.439-1.305zM23.978 4.001l3.656 10.042a18.612 18.612 0 0 1 3.783-.663V2.696c-2.58.116-5.074.565-7.439 1.305zM64.75 32c0 17.674-14.327 32-32 32-17.673 0-32-14.326-32-32s14.327-32 32-32c17.673 0 32 14.326 32 32zm-29.333 0a2.666 2.666 0 1 0-5.333 0 2.666 2.666 0 0 0 5.333 0z"/>
</svg>
